<?xml version="1.0" encoding="UTF-8"?>
<svg version="1.1" xmlns="http://www.w3.org/2000/svg" width="612" height="408">
<path d="M0 0 C3.45201639 1.47721422 5.64961936 3.43794001 8.25 6.125 C8.95640625 6.84945312 9.6628125 7.57390625 10.390625 8.3203125 C10.92171875 8.87460938 11.4528125 9.42890625 12 10 C12 8.35 12 6.7 12 5 C12.99 5 13.98 5 15 5 C17.1875 8 17.1875 8 19 11 C20.32 10.67 21.64 10.34 23 10 C23.47566406 10.96099609 23.47566406 10.96099609 23.9609375 11.94140625 C27.7809996 19.02223959 32.12759642 22.89828877 39 27 C38.67 28.98 38.34 30.96 38 33 C38.54269531 33.33773437 39.08539063 33.67546875 39.64453125 34.0234375 C40.35996094 34.46945313 41.07539063 34.91546875 41.8125 35.375 C42.52019531 35.81585938 43.22789062 36.25671875 43.95703125 36.7109375 C45.65432039 37.78188476 47.33014358 38.88676239 49 40 C49 40.99 49 41.98 49 43 C48.071875 43.2784375 48.071875 43.2784375 47.125 43.5625 C43.95837699 45.70462733 43.90078332 48.39686674 43 52 C40.6999007 54.3000993 39.68623331 54.42552031 36.5625 55 C33.28594366 55.60457053 31.8695435 56.086971 29 58 C26.67548857 55.67548857 26.63365414 54.72342214 26.125 51.5625 C25.53065336 48.77845521 25.20448108 47.26173579 23.4375 45 C18.40300151 42.93456472 13.69093276 42.55501769 8.4375 43.9375 C7.633125 44.288125 6.82875 44.63875 6 45 C5.34 44.34 4.68 43.68 4 43 C3.34 43.99 2.68 44.98 2 46 C1.34 46 0.68 46 0 46 C-0.495 42.04 -0.495 42.04 -1 38 C-4.05779441 43.22373211 -4.78183542 47.05249763 -3.6015625 53.01171875 C-2.11066189 58.09433446 0.39642923 60.89332342 4.78125 63.80859375 C14.04709443 68.7840912 25.44965474 67.39343147 35.3125 64.8125 C39.78687989 63.33336615 43.40428416 60.98364145 47.1875 58.20703125 C49 57 49 57 51 57 C52.37230602 54.46651197 53.50260849 51.86320651 54.5625 49.1875 C54.81128906 48.56230469 55.06007813 47.93710938 55.31640625 47.29296875 C58.10568195 37.93694112 56.4076249 28.41559263 52.49609375 19.6171875 C50.14834406 15.03001834 50.14834406 15.03001834 47 11 C46.95936168 9.33382885 46.957279 7.66611905 47 6 C56.49121428 9.65046703 62.0873788 23.34620252 66 32 C65.690625 30.329375 65.690625 30.329375 65.375 28.625 C65.25125 27.42875 65.1275 26.2325 65 25 C65.66 24.34 66.32 23.68 67 23 C76.88732287 34.29979757 79.95550058 48.95187378 79.3828125 63.58984375 C78.6615348 74.02115242 75.31696716 82.69181493 69 91 C68.34 92.0725 67.68 93.145 67 94.25 C64.68262715 97.43638766 62.07652801 99.55133485 59 102 C58.236875 102.804375 57.47375 103.60875 56.6875 104.4375 C47.9239446 112.79344817 37.60336081 117.18447863 26 120 C32.84310059 118.70217058 39.13387468 116.57562728 45.66796875 114.17578125 C49.42003905 112.85177989 53.11810251 111.85401745 57 111 C55.59305674 115.22082978 52.62850297 116.09459582 48.875 118 C48.22273438 118.34289062 47.57046875 118.68578125 46.8984375 119.0390625 C30.45318168 127.58798517 12.07600731 131.54677517 -6.1875 126.375 C-14.312604 123.39649685 -21.7132517 118.95586681 -28 113 C-28 112.34 -28 111.68 -28 111 C-28.56847656 110.80019531 -29.13695312 110.60039062 -29.72265625 110.39453125 C-32.88176175 108.46005327 -34.51252772 105.7620913 -36.4375 102.6875 C-37.02736694 101.75514526 -37.02736694 101.75514526 -37.62915039 100.80395508 C-47.85103828 84.14145534 -51.33854023 64.41275926 -47.21875 45.30078125 C-44.20397135 33.51353507 -37.76336758 22.32252569 -28 15 C-25.625 14.1875 -25.625 14.1875 -24 14 C-24 13.34 -24 12.68 -24 12 C-16.71428571 8.57142857 -16.71428571 8.57142857 -12 9 C-12 9.99 -12 10.98 -12 12 C-12.56847656 12.27972656 -13.13695312 12.55945313 -13.72265625 12.84765625 C-24.93723281 18.67024942 -31.30297796 27.15179392 -36.171875 38.8046875 C-37.24266484 42.93631998 -37.42429074 46.80783844 -37.4375 51.0625 C-37.44064209 51.89724854 -37.44378418 52.73199707 -37.44702148 53.59204102 C-37.29982561 61.28986756 -35.2386189 67.02369634 -32 74 C-31.84402344 74.75410156 -31.68804687 75.50820312 -31.52734375 76.28515625 C-31.35332031 76.85105469 -31.17929687 77.41695313 -31 78 C-29.515 78.495 -29.515 78.495 -28 79 C-26.99959023 80.66642073 -25.99964055 82.33311772 -25 84 C-15.3631075 92.66436206 -5.61806284 94.58537405 7 94 C6.38253906 93.731875 5.76507813 93.46375 5.12890625 93.1875 C-7.29633009 87.43822778 -16.45204918 78.23955491 -21.4375 65.375 C-24.44015051 55.33165174 -24.74654088 42.55969987 -20 33 C-17.89715719 29.77044882 -15.56161427 26.87470046 -13 24 C-12.175 23.05125 -11.35 22.1025 -10.5 21.125 C-5.41609791 16.80368322 0.64269305 15.44991211 7 14 C6.4946875 13.40832031 5.989375 12.81664063 5.46875 12.20703125 C4.49421875 11.02173828 4.49421875 11.02173828 3.5 9.8125 C2.8503125 9.03519531 2.200625 8.25789063 1.53125 7.45703125 C-0.1952605 4.68668659 -0.31838702 3.20092666 0 0 Z M0 35 C1 37 1 37 1 37 Z M67 36 C66.99383667 36.95084473 66.99383667 36.95084473 66.98754883 37.92089844 C66.81795733 52.86123137 66.23193934 64.69074754 57 77 C57.33 77.66 57.66 78.32 58 79 C64.72421098 74.51719268 66.74982689 68.78070652 68.39501953 61.17822266 C69.70573213 54.53574584 70.29634932 48.6978048 69 42 C68.814375 40.824375 68.62875 39.64875 68.4375 38.4375 C68.293125 37.633125 68.14875 36.82875 68 36 C67.67 36 67.34 36 67 36 Z M5 39 C6 41 6 41 6 41 Z M29 41 C30.07891841 44.12886338 31.04058583 45.02646902 33.875 46.875 C36.86987164 48.32088438 36.86987164 48.32088438 39.375 47.1875 C39.91125 46.795625 40.4475 46.40375 41 46 C40.67 45.34 40.34 44.68 40 44 C38.34305915 43.62127066 36.67343448 43.29749946 35 43 C32.99255385 42.35610218 30.99054876 41.69437747 29 41 Z M12 120 C12 120.33 12 120.66 12 121 C14.64 121 17.28 121 20 121 C20 120.67 20 120.34 20 120 C17.36 120 14.72 120 12 120 Z " fill="#FCF6F7" transform="translate(290,79)"/>
<path d="M0 0 C20.79 0 41.58 0 63 0 C63.495 0.99 63.495 0.99 64 2 C62.6875 4.625 62.6875 4.625 61 7 C60.34 7 59.68 7 59 7 C58.88914063 7.58015869 58.77828125 8.16031738 58.6640625 8.75805664 C57.92598659 11.2498769 56.91910432 12.78794633 55.375 14.87109375 C54.83721924 15.60473145 54.29943848 16.33836914 53.74536133 17.09423828 C53.16939209 17.86751465 52.59342285 18.64079102 52 19.4375 C50.81514816 21.04725183 49.6315629 22.65793666 48.44921875 24.26953125 C47.86446777 25.06568848 47.2797168 25.8618457 46.67724609 26.68212891 C43.57243345 30.97282633 40.64073884 35.3803368 37.70703125 39.7890625 C37.14371094 40.51867187 36.58039063 41.24828125 36 42 C35.34 42 34.68 42 34 42 C33.71125 42.763125 33.4225 43.52625 33.125 44.3125 C32 47 32 47 30 50 C29.34 50 28.68 50 28 50 C27.67 51.65 27.34 53.3 27 55 C27.98919434 54.98428955 28.97838867 54.9685791 29.99755859 54.95239258 C33.66137577 54.8981654 37.32515737 54.86367664 40.98925781 54.83520508 C42.57623251 54.82010186 44.16316537 54.79961777 45.75 54.77368164 C48.02875073 54.73736405 50.30695058 54.72028977 52.5859375 54.70703125 C53.29744965 54.69154739 54.00896179 54.67606354 54.74203491 54.66011047 C56.74365234 54.65942383 56.74365234 54.65942383 60 55 C62.42945561 58.64418341 62.0828781 59.92923364 61.625 64.1875 C61.51414062 65.27417969 61.40328125 66.36085938 61.2890625 67.48046875 C61.19367188 68.31191406 61.09828125 69.14335937 61 70 C57.74628455 71.08457182 55.3910068 71.12046857 51.96801758 71.11352539 C50.72695755 71.11344986 49.48589752 71.11337433 48.20722961 71.11329651 C46.85299642 71.10818991 45.49876363 71.10297391 44.14453125 71.09765625 C42.75876415 71.09579083 41.37299639 71.09436751 39.98722839 71.09336853 C36.3425209 71.0895531 32.69785335 71.07973113 29.05316162 71.06866455 C25.33297262 71.0584295 21.61277715 71.05386642 17.89257812 71.04882812 C10.59503389 71.03810798 3.29752254 71.02104325 -4 71 C-4.33 70.01 -4.66 69.02 -5 68 C-3.93603516 66.03881836 -3.93603516 66.03881836 -2.2890625 63.83984375 C-1.70382813 63.04642578 -1.11859375 62.25300781 -0.515625 61.43554688 C0.42023438 60.19901367 0.42023438 60.19901367 1.375 58.9375 C2.59212576 57.30150983 3.80831765 55.66482434 5.0234375 54.02734375 C5.56919434 53.30281006 6.11495117 52.57827637 6.67724609 51.83178711 C8.04976781 50.03468093 8.04976781 50.03468093 9 48 C9.66 48 10.32 48 11 48 C11.268125 47.278125 11.53625 46.55625 11.8125 45.8125 C12.99901362 43.00233617 14.27485639 40.51583443 16 38 C16.66 38 17.32 38 18 38 C18.2475 37.46761719 18.495 36.93523437 18.75 36.38671875 C20.31733656 33.3940855 22.13415475 30.62841719 24 27.8125 C24.70125 26.74644531 25.4025 25.68039063 26.125 24.58203125 C28 22 28 22 30 21 C30.99 19.02 31.98 17.04 33 15 C22.11 15 11.22 15 0 15 C-1 4 -1 4 0 0 Z " fill="#FDF9FA" transform="translate(153,229)"/>
<path d="M0 0 C1.28132813 0.10183594 2.56265625 0.20367187 3.8828125 0.30859375 C4.87023437 0.39238281 5.85765625 0.47617188 6.875 0.5625 C7.85056564 3.48919691 7.9356341 5.00311321 7.75390625 8.01171875 C7.70556641 8.85927734 7.65722656 9.70683594 7.60742188 10.58007812 C7.55134766 11.46115234 7.49527344 12.34222656 7.4375 13.25 C7.38529297 14.14267578 7.33308594 15.03535156 7.27929688 15.95507812 C7.1497182 18.1579156 7.01475754 20.36028873 6.875 22.5625 C7.47320557 22.25505859 8.07141113 21.94761719 8.68774414 21.63085938 C15.05502387 18.42929485 20.37186229 17.20648269 27.30078125 19.29296875 C33.48719968 21.77361117 36.41667821 24.70185058 39.45825195 30.66821289 C41.26375394 34.97171032 41.25777147 38.9473482 41.16796875 43.55859375 C41.16372391 44.39213882 41.15947906 45.2256839 41.15510559 46.08448792 C41.13843314 48.72333311 41.10080358 51.36138916 41.0625 54 C41.04743833 55.79881703 41.03375253 57.59764613 41.02148438 59.39648438 C40.98856728 63.78545615 40.93686567 68.17384469 40.875 72.5625 C37.48107349 73.69380884 34.82165128 73.6954194 31.25 73.6875 C30.08210938 73.69007813 28.91421875 73.69265625 27.7109375 73.6953125 C24.875 73.5625 24.875 73.5625 23.875 72.5625 C23.82357348 70.17250011 23.8331599 67.81034669 23.8828125 65.421875 C23.90034051 63.94401742 23.91724765 62.46615237 23.93359375 60.98828125 C23.9644788 58.65327379 23.99987773 56.31863814 24.04638672 53.98388672 C24.08889142 51.73400327 24.11222072 49.48455174 24.1328125 47.234375 C24.15143341 46.54148376 24.17005432 45.84859253 24.1892395 45.13470459 C24.21232941 40.74250605 23.49511216 38.09183327 20.875 34.5625 C19.03071435 32.71821435 16.44882783 33.15906643 13.98046875 32.94140625 C10.47675269 33.97496999 9.58674974 36.46336004 7.875 39.5625 C7.37659366 43.08470407 7.37659366 43.08470407 7.58984375 46.82421875 C7.60900597 47.83292778 7.60900597 47.83292778 7.6285553 48.86201477 C7.67050183 50.99234456 7.73892078 53.12054508 7.8125 55.25 C7.88060204 57.39004052 7.94249408 59.5294262 7.98573303 61.67012024 C8.02539685 63.60428035 8.08815401 65.53792591 8.15209961 67.47143555 C7.875 70.5625 7.875 70.5625 6.55712891 72.46655273 C3.88430642 74.20796059 1.45384383 73.95855929 -1.6875 73.9375 C-2.84378906 73.94523437 -4.00007813 73.95296875 -5.19140625 73.9609375 C-6.15949219 73.82945312 -7.12757813 73.69796875 -8.125 73.5625 C-10.58041044 69.87938434 -10.3389996 68.18227784 -10.26025391 63.79614258 C-10.25079239 63.11295456 -10.24133087 62.42976654 -10.23158264 61.72587585 C-10.19792374 59.46932092 -10.14980434 57.21331764 -10.1015625 54.95703125 C-10.07539338 53.39191629 -10.05012653 51.826786 -10.02572632 50.26164246 C-9.9590947 46.14328613 -9.8801979 42.02525228 -9.79876709 37.90716553 C-9.717828 33.70451225 -9.64845975 29.50166988 -9.578125 25.29882812 C-9.43842369 17.05315585 -9.28576778 8.8077883 -9.125 0.5625 C-6.07230154 -0.96384923 -3.36654311 -0.27544444 0 0 Z " fill="#FDF7F9" transform="translate(422.125,226.4375)"/>
<path d="M0 0 C6.58428965 6.29996805 8.23273854 12.50288709 8.71875 21.64453125 C8.38875 23.29453125 8.05875 24.94453125 7.71875 26.64453125 C-5.15125 27.30453125 -18.02125 27.96453125 -31.28125 28.64453125 C-27.71458333 31.94453125 -27.71458333 31.94453125 -24.28125 31.64453125 C-24.28125 32.30453125 -24.28125 32.96453125 -24.28125 33.64453125 C-17.50891223 33.40732152 -13.54204472 33.15378387 -8.28125 28.64453125 C-3.1219405 28.64453125 0.45523825 31.00115397 4.71875 33.64453125 C4.64082925 36.29383669 4.16244444 38.09726145 2.48046875 40.171875 C-3.30612836 45.59939926 -10.83361228 48.75444045 -18.78125 49.08203125 C-28.81743096 48.52546308 -36.91023691 45.35808344 -43.8125 38.015625 C-48.54071336 32.0916135 -49.5649177 25.64439191 -49.21875 18.20703125 C-48.55663624 12.34732444 -46.24232886 7.68164327 -43.28125 2.64453125 C-42.62125 2.64453125 -41.96125 2.64453125 -41.28125 2.64453125 C-41.095625 2.06703125 -40.91 1.48953125 -40.71875 0.89453125 C-37.80826998 -3.66100269 -33.92585305 -4.96927903 -28.87109375 -6.15625 C-17.85854721 -7.98233859 -8.76749762 -7.38410148 0 0 Z M-32.28125 13.64453125 C-32.28125 13.97453125 -32.28125 14.30453125 -32.28125 14.64453125 C-24.69125 14.64453125 -17.10125 14.64453125 -9.28125 14.64453125 C-11.30943998 10.5881513 -11.55929495 10.1253528 -15.34375 8.39453125 C-16.05660156 8.059375 -16.76945312 7.72421875 -17.50390625 7.37890625 C-23.13912236 5.05050926 -28.41961283 10.0587253 -32.28125 13.64453125 Z " fill="#FCF3F5" transform="translate(268.28125,252.35546875)"/>
<path d="M0 0 C4.6300505 3.7040404 7.53716311 8.20465042 8.25961304 14.12887573 C8.34497522 16.49678341 8.33786898 18.84584916 8.29296875 21.21484375 C8.28872391 22.07058487 8.28447906 22.92632599 8.28010559 23.80799866 C8.26342789 26.5181642 8.22579705 29.22756248 8.1875 31.9375 C8.17243902 33.7844944 8.1587531 35.63150056 8.14648438 37.47851562 C8.11356026 41.98596884 8.06185469 46.49285472 8 51 C4.9020403 52.54897985 1.73783448 51.83239539 -1.625 51.5625 C-2.33140625 51.51029297 -3.0378125 51.45808594 -3.765625 51.40429688 C-5.51079987 51.27458793 -7.25545725 51.13795046 -9 51 C-9.01458252 49.92516357 -9.02916504 48.85032715 -9.04418945 47.74291992 C-9.1021489 43.75625283 -9.17938129 39.77015199 -9.26245117 35.78393555 C-9.29571172 34.05844307 -9.32374019 32.33284151 -9.34643555 30.60717773 C-9.37996153 28.12696834 -9.43227406 25.6477597 -9.48828125 23.16796875 C-9.49467117 22.39599655 -9.5010611 21.62402435 -9.50764465 20.82865906 C-9.59601857 16.6629214 -9.59601857 16.6629214 -11.40869141 13.0144043 C-14.54410443 11.01568673 -17.38079653 11.65531396 -21 12 C-21.99 13.485 -21.99 13.485 -23 15 C-23.66 15 -24.32 15 -25 15 C-24.99214478 16.58252563 -24.99214478 16.58252563 -24.98413086 18.19702148 C-24.96608099 22.0975663 -24.95456805 25.9981074 -24.94506836 29.89868164 C-24.9400281 31.58944316 -24.93319595 33.28020029 -24.92456055 34.97094727 C-24.91248143 37.39600707 -24.90676877 39.82100944 -24.90234375 42.24609375 C-24.89718246 43.00651474 -24.89202118 43.76693573 -24.88670349 44.55039978 C-24.88650762 46.3673257 -24.93802723 48.18413127 -25 50 C-25.33 50.33 -25.66 50.66 -26 51 C-31.28 51 -36.56 51 -42 51 C-42 33.84 -42 16.68 -42 -1 C-35.73 -1 -29.46 -1 -23 -1 C-14.35945993 -3.46872573 -7.97917082 -4.26354836 0 0 Z " fill="#FDF2F4" transform="translate(327,248)"/>
<path d="M0 0 C1.15628906 -0.01675781 2.31257813 -0.03351563 3.50390625 -0.05078125 C4.47199219 0.06910156 5.44007813 0.18898437 6.4375 0.3125 C8.64664 3.62621 8.66231553 4.6571021 8.5625 8.5 C8.54445313 9.40105469 8.52640625 10.30210937 8.5078125 11.23046875 C8.48460937 11.91753906 8.46140625 12.60460937 8.4375 13.3125 C9.07558594 13.36148438 9.71367187 13.41046875 10.37109375 13.4609375 C11.19738281 13.53570312 12.02367187 13.61046875 12.875 13.6875 C13.69871094 13.75710937 14.52242188 13.82671875 15.37109375 13.8984375 C16.05300781 14.03507813 16.73492187 14.17171875 17.4375 14.3125 C18.75979189 16.95708379 18.53427194 18.99011301 18.5 21.9375 C18.49097656 22.94039062 18.48195313 23.94328125 18.47265625 24.9765625 C18.46105469 25.74742187 18.44945312 26.51828125 18.4375 27.3125 C15.12354223 28.44225833 11.84047337 29.49134773 8.4375 30.3125 C8.40840237 33.56248112 8.39066839 36.81242857 8.375 40.0625 C8.36662109 40.98289062 8.35824219 41.90328125 8.34960938 42.8515625 C8.34638672 43.74101562 8.34316406 44.63046875 8.33984375 45.546875 C8.33460693 46.36381836 8.32937012 47.18076172 8.32397461 48.02246094 C8.43450979 50.25218135 8.81694433 52.17383755 9.4375 54.3125 C10.571875 54.456875 11.70625 54.60125 12.875 54.75 C16.4375 55.3125 16.4375 55.3125 17.4375 56.3125 C17.51008946 58.49889453 17.52123783 60.68750389 17.5 62.875 C17.49097656 64.07253906 17.48195313 65.27007812 17.47265625 66.50390625 C17.46105469 67.43074219 17.44945312 68.35757813 17.4375 69.3125 C12.52264481 71.7699276 5.07260473 71.06073961 -0.09375 69.59375 C-4.44400473 67.58094557 -6.39299155 65.67739278 -8.5625 61.3125 C-8.99487305 57.80737305 -8.99487305 57.80737305 -9.07421875 53.82421875 C-9.09216995 53.12102005 -9.11012115 52.41782135 -9.12861633 51.6933136 C-9.1825048 49.46226883 -9.21654412 47.2314353 -9.25 45 C-9.28319224 43.48109053 -9.31768367 41.96220886 -9.35351562 40.44335938 C-9.43821695 36.73327584 -9.50513074 33.0231183 -9.5625 29.3125 C-11.2125 28.9825 -12.8625 28.6525 -14.5625 28.3125 C-14.5625 24.0225 -14.5625 19.7325 -14.5625 15.3125 C-12.9125 14.6525 -11.2625 13.9925 -9.5625 13.3125 C-9.59730469 12.54164063 -9.63210938 11.77078125 -9.66796875 10.9765625 C-9.69503906 9.97367188 -9.72210938 8.97078125 -9.75 7.9375 C-9.78480469 6.93976563 -9.81960938 5.94203125 -9.85546875 4.9140625 C-9.71044922 3.62628906 -9.71044922 3.62628906 -9.5625 2.3125 C-5.99291489 -0.0672234 -4.23531698 0.01419659 0 0 Z " fill="#FCF9F9" transform="translate(386.5625,230.6875)"/>
<path d="M0 0 C5.28 0 10.56 0 16 0 C16.8560053 6.50506382 17.07701241 12.73326254 16.87890625 19.28515625 C16.85529526 20.22685165 16.83168427 21.16854706 16.80735779 22.13877869 C16.7314687 25.1135352 16.64712805 28.08798059 16.5625 31.0625 C16.50920425 33.0930843 16.45646453 35.12368328 16.40429688 37.15429688 C16.27595623 42.1030574 16.14004128 47.05155733 16 52 C12 53 12 53 0 52 C0 34.84 0 17.68 0 0 Z " fill="#FEEFF2" transform="translate(347,247)"/>
<path d="M0 0 C2.34110011 2.64317755 2.91513412 4.54738198 3.5625 8 C3 11 3 11 0.375 13.875 C-3.30726892 16.19346562 -4.76236078 16.81146283 -9 16 C-12.74093467 13.92170296 -13.79149259 12.67458281 -15.0625 8.5625 C-15 5 -15 5 -13.3125 2.125 C-9.06981585 -1.77368274 -5.5292643 -1.4074491 0 0 Z " fill="#FCEBEE" transform="translate(361,227)"/>
<path d="M0 0 C8.61846233 3.3147932 14.12856522 15.59903479 17.90625 23.40625 C20.3734513 29.25704164 20.25291253 34.84845309 20.3125 41.125 C20.34150391 42.12015625 20.37050781 43.1153125 20.40039062 44.140625 C20.46060594 51.23676853 19.1108113 56.62718792 16 63 C15.34 61.68 14.68 60.36 14 59 C14.66 58.34 15.32 57.68 16 57 C17.02448603 53.95340419 17.18627842 50.99430165 17.31640625 47.796875 C17.35830078 46.8171875 17.40019531 45.8375 17.44335938 44.828125 C17.48267578 43.81234375 17.52199219 42.7965625 17.5625 41.75 C17.60568359 40.71875 17.64886719 39.6875 17.69335938 38.625 C17.79925682 36.0834613 17.90133443 33.54182804 18 31 C17.34 31 16.68 31 16 31 C15.67 28.36 15.34 25.72 15 23 C14.01 23 13.02 23 12 23 C12 26.3 12 29.6 12 33 C11.34 32.67 10.68 32.34 10 32 C9.51236312 29.72237898 9.11113394 27.42607138 8.75 25.125 C7.50260282 17.96490585 5.2993003 10.2993003 0 5 C-0.04063832 3.33382885 -0.042721 1.66611905 0 0 Z " fill="#FDDBE4" transform="translate(337,85)"/>
<path d="M0 0 C0 0.33 0 0.66 0 1 C-1.051875 1.268125 -2.10375 1.53625 -3.1875 1.8125 C-6.92539247 2.80271451 -6.92539247 2.80271451 -9.625 4.625 C-12.32767606 6.18970719 -13.93007415 6.2631365 -17 6 C-17 5.01 -17 4.02 -17 3 C-21.62 3 -26.24 3 -31 3 C-30.67 19.17 -30.34 35.34 -30 52 C-26.04 52 -22.08 52 -18 52 C-17.970271 50.6070874 -17.970271 50.6070874 -17.93994141 49.18603516 C-17.86191387 45.7454948 -17.77522538 42.30540109 -17.68261719 38.86523438 C-17.64430002 37.37541111 -17.60945192 35.88549446 -17.578125 34.39550781 C-17.53253271 32.25551952 -17.47453126 30.11617564 -17.4140625 27.9765625 C-17.3826416 26.68830566 -17.3512207 25.40004883 -17.31884766 24.07275391 C-17 21 -17 21 -15 19 C-14.9753481 23.82380802 -14.95716307 28.64757967 -14.94506836 33.47143555 C-14.94002826 35.11369464 -14.93319622 36.75594923 -14.92456055 38.39819336 C-14.91248074 40.75375479 -14.90676861 43.10925709 -14.90234375 45.46484375 C-14.89718246 46.20339096 -14.89202118 46.94193817 -14.88670349 47.7028656 C-14.8865075 49.46898088 -14.93805281 51.23497146 -15 53 C-15.33 53.33 -15.66 53.66 -16 54 C-21.28 54 -26.56 54 -32 54 C-32 36.84 -32 19.68 -32 2 C-25.73 2 -19.46 2 -13 2 C-7.78374381 0.50964109 -5.07210297 -0.24741966 0 0 Z " fill="#FDB4BF" transform="translate(317,245)"/>
<path d="M0 0 C-0.185625 0.7425 -0.37125 1.485 -0.5625 2.25 C-0.99203108 4.94990963 -0.85122974 6.44631077 0 9 C-0.66 9 -1.32 9 -2 9 C-1.01 10.485 -1.01 10.485 0 12 C0 12.99 0 13.98 0 15 C-2.3796612 16.1898306 -3.91485735 16.13349966 -6.5625 16.125 C-7.77099609 16.12886719 -7.77099609 16.12886719 -9.00390625 16.1328125 C-11 16 -11 16 -12 15 C-12.09975032 12.48863896 -12.13882183 10.01096585 -12.125 7.5 C-12.12886719 6.79746094 -12.13273437 6.09492188 -12.13671875 5.37109375 C-12.12661378 0.12661378 -12.12661378 0.12661378 -11 -1 C-3.69897959 -2.51530612 -3.69897959 -2.51530612 0 0 Z " fill="#FCE7EC" transform="translate(432,310)"/>
<path d="M0 0 C0.12375 0.804375 0.2475 1.60875 0.375 2.4375 C0.684375 3.7059375 0.684375 3.7059375 1 5 C1.66 5.33 2.32 5.66 3 6 C3.33 4.35 3.66 2.7 4 1 C5.32 0.67 6.64 0.34 8 0 C8.82020418 2.88711871 9.16181621 5.50013311 9.1875 8.5 C9.20167969 9.2528125 9.21585937 10.005625 9.23046875 10.78125 C8.97417278 13.24864173 8.22845153 14.86356256 7 17 C5.68 16.34 4.36 15.68 3 15 C3 13.68 3 12.36 3 11 C0.2160817 12.39195915 0.02101003 14.15575779 -1 17 C-2.32 16.67 -3.64 16.34 -5 16 C-5 11.05 -5 6.1 -5 1 C-3 0 -3 0 0 0 Z " fill="#FECDD9" transform="translate(307,309)"/>
<path d="M0 0 C1.22589844 0.15275391 1.22589844 0.15275391 2.4765625 0.30859375 C3.41628906 0.43427734 3.41628906 0.43427734 4.375 0.5625 C5.22181133 5.64336796 5.46538099 10.41078377 5.375 15.5625 C4.055 15.5625 2.735 15.5625 1.375 15.5625 C0.715 14.9025 0.055 14.2425 -0.625 13.5625 C-1.615 15.0475 -1.615 15.0475 -2.625 16.5625 C-3.945 16.2325 -5.265 15.9025 -6.625 15.5625 C-6.625 10.6125 -6.625 5.6625 -6.625 0.5625 C-4.10446405 -0.69776798 -2.7707902 -0.35624445 0 0 Z " fill="#F8CACF" transform="translate(404.625,309.4375)"/>
<path d="M0 0 C3.63 0 7.26 0 11 0 C12.23578845 3.70736536 11.62471794 6.18227929 11 10 C11 10.66 11 11.32 11 12 C11 13.32 11 14.64 11 16 C6.93720525 16.85035239 4.02659396 16.92604802 0 16 C-0.19504458 13.89651926 -0.38078496 11.79217415 -0.5625 9.6875 C-0.66691406 8.51574219 -0.77132813 7.34398437 -0.87890625 6.13671875 C-1 3 -1 3 0 0 Z " fill="#FED9E3" transform="translate(326,309)"/>
<path d="M0 0 C1.051875 -0.00386719 1.051875 -0.00386719 2.125 -0.0078125 C4 0.125 4 0.125 6 1.125 C5.835 1.8675 5.67 2.61 5.5 3.375 C4.88074304 6.31506578 4.88074304 6.31506578 5 10.125 C3.35 10.455 1.7 10.785 0 11.125 C1.98 11.785 3.96 12.445 6 13.125 C6 14.115 6 15.105 6 16.125 C2.04395608 17.34224428 -2.20640675 18.02179663 -6 16.125 C-6 11.175 -6 6.225 -6 1.125 C-3.75487738 0.00243869 -2.48543351 -0.00913762 0 0 Z " fill="#F8CEDA" transform="translate(230,308.875)"/>
<path d="M0 0 C0.99 0 1.98 0 3 0 C3 3.63 3 7.26 3 11 C4.32 11 5.64 11 7 11 C7.33 7.7 7.66 4.4 8 1 C9.65 0.67 11.3 0.34 13 0 C13.0810206 2.10353495 13.13919907 4.20795952 13.1875 6.3125 C13.22230469 7.48425781 13.25710937 8.65601563 13.29296875 9.86328125 C13 13 13 13 11.73828125 14.89453125 C9.66232112 16.21474859 8.4484873 16.40282372 6 16.375 C5.319375 16.38273437 4.63875 16.39046875 3.9375 16.3984375 C1.3328345 15.86280064 0.49845475 15.20143352 -1 13 C-1.328125 10.1171875 -1.328125 10.1171875 -1.25 6.875 C-1.23453125 5.79992187 -1.2190625 4.72484375 -1.203125 3.6171875 C-1 1 -1 1 0 0 Z " fill="#F7B2BD" transform="translate(201,309)"/>
<path d="M0 0 C20.79 0 41.58 0 63 0 C63.495 0.99 63.495 0.99 64 2 C62.5625 4.625 62.5625 4.625 61 7 C60.505 5.515 60.505 5.515 60 4 C60.33 3.34 60.66 2.68 61 2 C41.53 2 22.06 2 2 2 C1.67 4.31 1.34 6.62 1 9 C0.34 9 -0.32 9 -1 9 C-0.67 6.03 -0.34 3.06 0 0 Z " fill="#FFC4CB" transform="translate(153,229)"/>
<path d="M0 0 C8.05144628 7.15684113 9.91996741 15.66286835 12 26 C10.68 24.68 9.36 23.36 8 22 C5.60063069 24.39936931 5.7133711 25.214085 5.5 28.5 C5.22222222 32.77777778 5.22222222 32.77777778 3 35 C3.05220703 33.99646484 3.05220703 33.99646484 3.10546875 32.97265625 C3.38419129 23.08464238 1.99173631 13.16553656 -0.66015625 3.625 C-1 2 -1 2 0 0 Z " fill="#FDF1F3" transform="translate(356,102)"/>
<path d="M0 0 C1.23556641 0.01740234 1.23556641 0.01740234 2.49609375 0.03515625 C3.32238281 0.04417969 4.14867187 0.05320312 5 0.0625 C5.63808594 0.07410156 6.27617187 0.08570313 6.93359375 0.09765625 C7.99609375 1.97265625 7.99609375 1.97265625 8.93359375 4.09765625 C8.60359375 4.75765625 8.27359375 5.41765625 7.93359375 6.09765625 C7.93359375 7.41765625 7.93359375 8.73765625 7.93359375 10.09765625 C5.95359375 10.09765625 3.97359375 10.09765625 1.93359375 10.09765625 C1.93359375 12.07765625 1.93359375 14.05765625 1.93359375 16.09765625 C0.61359375 16.42765625 -0.70640625 16.75765625 -2.06640625 17.09765625 C-4.54416254 13.38102181 -4.15636403 11.84635403 -3.75390625 7.47265625 C-3.65464844 6.30476563 -3.55539063 5.136875 -3.453125 3.93359375 C-2.93564434 0.13873555 -2.93564434 0.13873555 0 0 Z " fill="#FFD0D8" transform="translate(182.06640625,308.90234375)"/>
<path d="M0 0 C1.37478516 0.01740234 1.37478516 0.01740234 2.77734375 0.03515625 C3.69644531 0.04417969 4.61554688 0.05320312 5.5625 0.0625 C6.27277344 0.07410156 6.98304688 0.08570313 7.71484375 0.09765625 C8.83984375 3.84765625 8.83984375 3.84765625 7.71484375 6.09765625 C7.71484375 7.41765625 7.71484375 8.73765625 7.71484375 10.09765625 C6.06484375 10.42765625 4.41484375 10.75765625 2.71484375 11.09765625 C2.05484375 13.07765625 1.39484375 15.05765625 0.71484375 17.09765625 C-0.60515625 16.76765625 -1.92515625 16.43765625 -3.28515625 16.09765625 C-3.3120072 13.61841824 -3.33192172 11.13946785 -3.34765625 8.66015625 C-3.36022461 7.59958008 -3.36022461 7.59958008 -3.37304688 6.51757812 C-3.38169213 4.71072066 -3.33735636 2.90378022 -3.28515625 1.09765625 C-2.28515625 0.09765625 -2.28515625 0.09765625 0 0 Z " fill="#FCE5E8" transform="translate(365.28515625,308.90234375)"/>
<path d="M0 0 C-1.40694326 4.22082978 -4.37149703 5.09459582 -8.125 7 C-8.77726562 7.34289062 -9.42953125 7.68578125 -10.1015625 8.0390625 C-16.62239533 11.42886052 -22.5805464 14.2429129 -30 15 C-30 14.34 -30 13.68 -30 13 C-28.68 12.67 -27.36 12.34 -26 12 C-28.31 11.67 -30.62 11.34 -33 11 C-33 10.34 -33 9.68 -33 9 C-31.845 8.95875 -30.69 8.9175 -29.5 8.875 C-22.56725317 8.13653571 -16.2724617 5.25123962 -9.84228516 2.71142578 C-2.82086479 0 -2.82086479 0 0 0 Z " fill="#FAC8D2" transform="translate(347,190)"/>
<path d="M0 0 C0 0.99 0 1.98 0 3 C-0.56847656 3.27972656 -1.13695312 3.55945313 -1.72265625 3.84765625 C-12.91079801 9.65652451 -19.94443153 18.4105681 -24.19921875 30.37109375 C-24.46347656 31.23863281 -24.72773438 32.10617188 -25 33 C-26.1875 31.3125 -26.1875 31.3125 -27 29 C-25.6875 26.5 -25.6875 26.5 -24 24 C-23.64830932 22.67139075 -23.31229724 21.33841672 -23 20 C-22.34 19.01 -21.68 18.02 -21 17 C-20.34 17 -19.68 17 -19 17 C-18.896875 16.236875 -18.79375 15.47375 -18.6875 14.6875 C-17.94932885 11.80192188 -17.37859197 10.73820183 -15 9 C-14.01 9 -13.02 9 -12 9 C-12.33 8.34 -12.66 7.68 -13 7 C-14.65 7.33 -16.3 7.66 -18 8 C-14.25 5 -14.25 5 -12 5 C-12 4.34 -12 3.68 -12 3 C-4.71428571 -0.42857143 -4.71428571 -0.42857143 0 0 Z " fill="#F9BEC9" transform="translate(278,88)"/>
<path d="M0 0 C3.3 1.65 6.6 3.3 10 5 C10 5.99 10 6.98 10 8 C9.38125 8.185625 8.7625 8.37125 8.125 8.5625 C4.95837699 10.70462733 4.90078332 13.39686674 4 17 C1.6999007 19.3000993 0.68623331 19.42552031 -2.4375 20 C-5.71405634 20.60457053 -7.1304565 21.086971 -10 23 C-12.39763185 20.60236815 -12.34280586 19.66726502 -12.625 16.375 C-12.69976562 15.55773437 -12.77453125 14.74046875 -12.8515625 13.8984375 C-12.90054687 13.27195312 -12.94953125 12.64546875 -13 12 C-12.34 12 -11.68 12 -11 12 C-10.67 13.98 -10.34 15.96 -10 18 C-6.7 17.67 -3.4 17.34 0 17 C-1.62366466 13.75267068 -4.75387839 13.29844864 -8 12 C-7.67 11.34 -7.34 10.68 -7 10 C-4.69 10.66 -2.38 11.32 0 12 C0.33 11.01 0.66 10.02 1 9 C3.5625 7.8125 3.5625 7.8125 6 7 C6 6.01 6 5.02 6 4 C4.68 4 3.36 4 2 4 C2 3.34 2 2.68 2 2 C1.34 2 0.68 2 0 2 C0 1.34 0 0.68 0 0 Z " fill="#FAB5BD" transform="translate(329,114)"/>
<path d="M0 0 C1.50433594 0.01353516 1.50433594 0.01353516 3.0390625 0.02734375 C3.80992187 0.03894531 4.58078125 0.05054688 5.375 0.0625 C5.705 1.0525 6.035 2.0425 6.375 3.0625 C6.045 3.7225 5.715 4.3825 5.375 5.0625 C4.055 5.0625 2.735 5.0625 1.375 5.0625 C1.375 8.6925 1.375 12.3225 1.375 16.0625 C0.055 16.3925 -1.265 16.7225 -2.625 17.0625 C-2.65078125 16.29164063 -2.6765625 15.52078125 -2.703125 14.7265625 C-2.75984375 13.72367187 -2.8165625 12.72078125 -2.875 11.6875 C-2.92140625 10.68976563 -2.9678125 9.69203125 -3.015625 8.6640625 C-3.34660885 5.9098523 -3.34660885 5.9098523 -5.671875 4.7109375 C-6.31640625 4.49695313 -6.9609375 4.28296875 -7.625 4.0625 C-7.625 3.0725 -7.625 2.0825 -7.625 1.0625 C-4.98041621 -0.25979189 -2.94738699 -0.03427194 0 0 Z " fill="#FDC4CD" transform="translate(287.625,308.9375)"/>
<path d="M0 0 C0 3.3 0 6.6 0 10 C1.98 10.66 3.96 11.32 6 12 C5.67 12.99 5.34 13.98 5 15 C1.37 15 -2.26 15 -6 15 C-6 10.05 -6 5.1 -6 0 C-4 -1 -4 -1 0 0 Z " fill="#FCCDD6" transform="translate(251,310)"/>
<path d="M0 0 C0 1.65 0 3.3 0 5 C-0.99 5.495 -0.99 5.495 -2 6 C-2.474375 5.195625 -2.94875 4.39125 -3.4375 3.5625 C-4.76900154 1.15246512 -4.76900154 1.15246512 -6 0 C-10.08819229 -0.60600251 -10.08819229 -0.60600251 -14 0 C-17.57245865 4.42318292 -18.51297663 7.50913299 -18.609375 13.1484375 C-18.62591125 13.80582916 -18.64244751 14.46322083 -18.65948486 15.14053345 C-18.70766603 17.21878676 -18.72926614 19.29631026 -18.75 21.375 C-18.77818516 22.79300488 -18.80811613 24.21097621 -18.83984375 25.62890625 C-18.91341292 29.08578041 -18.96317098 32.54251673 -19 36 C-21.65634915 33.34365085 -21.31688746 31.93385774 -21.44921875 28.22265625 C-21.49240234 27.06958984 -21.53558594 25.91652344 -21.58007812 24.72851562 C-21.61552734 23.51873047 -21.65097656 22.30894531 -21.6875 21.0625 C-21.73455078 19.85658203 -21.78160156 18.65066406 -21.83007812 17.40820312 C-22.13656044 8.40968133 -22.13656044 8.40968133 -21 5 C-20.34 5 -19.68 5 -19 5 C-19 3.02 -19 1.04 -19 -1 C-12.94738693 -4.31917491 -6.00151313 -2.90395797 0 0 Z " fill="#FFD7DD" transform="translate(448,260)"/>
<path d="M0 0 C3.73753786 3.02562588 5.67415783 7.39238824 6.26156616 12.0932312 C6.34480253 14.40009069 6.33791446 16.68819388 6.29296875 18.99609375 C6.28872391 19.82963882 6.28447906 20.6631839 6.28010559 21.52198792 C6.26343314 24.16083311 6.22580358 26.79888916 6.1875 29.4375 C6.17243833 31.23631703 6.15875253 33.03514613 6.14648438 34.83398438 C6.11356728 39.22295615 6.06186567 43.61134469 6 48 C5.01 48 4.02 48 3 48 C2.97509536 43.58919646 2.95704396 39.17843129 2.94506836 34.76757812 C2.94007057 33.27017503 2.9332701 31.77277673 2.92456055 30.27539062 C2.91229377 28.11066495 2.90672603 25.94600435 2.90234375 23.78125 C2.89710693 22.48251953 2.89187012 21.18378906 2.88647461 19.84570312 C3.0053392 15.81913327 3.43973231 11.98584904 4 8 C3.34 8 2.68 8 2 8 C0.74335022 5.09399739 0 3.20395416 0 0 Z " fill="#F5AABA" transform="translate(457,251)"/>
<path d="M0 0 C1.32 0 2.64 0 4 0 C4 5.28 4 10.56 4 16 C2.68 16.33 1.36 16.66 0 17 C-1.83894592 13.13891814 -2.16250803 10.48501139 -1.6875 6.25 C-1.58824219 5.28578125 -1.48898437 4.3215625 -1.38671875 3.328125 C-1 1 -1 1 0 0 Z " fill="#F4BEC6" transform="translate(384,309)"/>
<path d="M0 0 C0.66 0 1.32 0 2 0 C1.49287967 3.71888239 0.88391785 6.73454239 -1 10 C-1.66 10 -2.32 10 -3 10 C-3.061875 10.556875 -3.12375 11.11375 -3.1875 11.6875 C-4.3364741 14.95765706 -6.51198688 16.63046369 -9 19 C-9.556875 19.763125 -10.11375 20.52625 -10.6875 21.3125 C-11.120625 21.869375 -11.55375 22.42625 -12 23 C-12.66 23 -13.32 23 -14 23 C-14 23.99 -14 24.98 -14 26 C-15.65 26.66 -17.3 27.32 -19 28 C-17.57731409 25.86597113 -16.15392958 23.73246596 -14.7265625 21.6015625 C-13.58185084 19.87672548 -12.45140148 18.14233189 -11.3359375 16.3984375 C-10.81257812 15.58632813 -10.28921875 14.77421875 -9.75 13.9375 C-9.03070313 12.80634766 -9.03070313 12.80634766 -8.296875 11.65234375 C-7.86890625 11.10707031 -7.4409375 10.56179688 -7 10 C-6.34 10 -5.68 10 -5 10 C-4.731875 9.278125 -4.46375 8.55625 -4.1875 7.8125 C-3.00098638 5.00233617 -1.72514361 2.51583443 0 0 Z " fill="#F9C8CC" transform="translate(169,267)"/>
<path d="M0 0 C0.66 0 1.32 0 2 0 C2.33 0.99 2.66 1.98 3 3 C3.969375 2.979375 4.93875 2.95875 5.9375 2.9375 C9 3 9 3 10 4 C10.04063832 5.66617115 10.042721 7.33388095 10 9 C7.69 8.01 5.38 7.02 3 6 C3.309375 7.1446875 3.309375 7.1446875 3.625 8.3125 C4 11 4 11 2 14 C0.68 13.67 -0.64 13.34 -2 13 C-2 9.37 -2 5.74 -2 2 C-1.34 2 -0.68 2 0 2 C0 1.34 0 0.68 0 0 Z " fill="#FEF5F7" transform="translate(304,312)"/>
<path d="M0 0 C0.33 0 0.66 0 1 0 C1 3.63 1 7.26 1 11 C-2.25371545 12.08457182 -4.6089932 12.12046857 -8.03198242 12.11352539 C-9.27304245 12.11344986 -10.51410248 12.11337433 -11.79277039 12.11329651 C-13.14700358 12.10818991 -14.50123637 12.10297391 -15.85546875 12.09765625 C-17.24123585 12.09579083 -18.62700361 12.09436751 -20.01277161 12.09336853 C-23.6574791 12.0895531 -27.30214665 12.07973113 -30.94683838 12.06866455 C-34.66702738 12.0584295 -38.38722285 12.05386642 -42.10742188 12.04882812 C-49.40496611 12.03810798 -56.70247746 12.02104325 -64 12 C-64.33 11.01 -64.66 10.02 -65 9 C-64.34 8.34 -63.68 7.68 -63 7 C-63 7.99 -63 8.98 -63 10 C-42.21 10 -21.42 10 0 10 C0 6.7 0 3.4 0 0 Z " fill="#FEBBCA" transform="translate(213,288)"/>
<path d="M0 0 C-0.33 0.99 -0.66 1.98 -1 3 C-2.11375 3.12375 -3.2275 3.2475 -4.375 3.375 C-8.03103677 3.6465813 -8.03103677 3.6465813 -10 6 C-11.155 6.28875 -12.31 6.5775 -13.5 6.875 C-17.03170675 7.58611148 -17.03170675 7.58611148 -18.125 9.875 C-18.558125 10.926875 -18.558125 10.926875 -19 12 C-19.825 12.61875 -20.65 13.2375 -21.5 13.875 C-24.45034017 16.38278915 -25.07473786 18.29895144 -26 22 C-26.66 22 -27.32 22 -28 22 C-27.59242615 15.47881835 -22.63839029 10.89045033 -18.5625 6.1875 C-13.17816771 1.59111878 -6.97311615 0 0 0 Z " fill="#F5B6BE" transform="translate(298,94)"/>
<path d="M0 0 C4.95 0 9.9 0 15 0 C15.87890625 6.93359375 15.87890625 6.93359375 16 9 C15.67 9.33 15.34 9.66 15 10 C14.8396444 13.02807044 14.74039552 16.03585454 14.68359375 19.06640625 C14.66281265 19.97502914 14.64203156 20.88365204 14.62062073 21.81980896 C14.55502328 24.73395946 14.4961932 27.64820304 14.4375 30.5625 C14.39432446 32.53321291 14.35071049 34.50391626 14.30664062 36.47460938 C14.19933157 41.31630988 14.09809325 46.15810437 14 51 C13.01 50.67 12.02 50.34 11 50 C11.66 50 12.32 50 13 50 C13 34.16 13 18.32 13 2 C8.71 1.67 4.42 1.34 0 1 C0 0.67 0 0.34 0 0 Z " fill="#FFEFF7" transform="translate(348,247)"/>
<path d="M0 0 C1.49080078 0.02707031 1.49080078 0.02707031 3.01171875 0.0546875 C3.77097656 0.07789063 4.53023438 0.10109375 5.3125 0.125 C5.3125 0.455 5.3125 0.785 5.3125 1.125 C1.2597484 2.10748524 -2.52611737 2.20659574 -6.6875 2.125 C-6.64109375 2.94484375 -6.5946875 3.7646875 -6.546875 4.609375 C-6.51078125 5.68703125 -6.4746875 6.7646875 -6.4375 7.875 C-6.39109375 8.94234375 -6.3446875 10.0096875 -6.296875 11.109375 C-6.78047081 14.84273464 -8.07666904 15.55496327 -10.6875 18.125 C-11.16867013 20.93974607 -11.16867013 20.93974607 -10.9375 23.875 C-10.90140625 24.85984375 -10.8653125 25.8446875 -10.828125 26.859375 C-10.78171875 27.60703125 -10.7353125 28.3546875 -10.6875 29.125 C-11.6775 28.795 -12.6675 28.465 -13.6875 28.125 C-13.6875 23.835 -13.6875 19.545 -13.6875 15.125 C-12.0375 14.465 -10.3875 13.805 -8.6875 13.125 C-8.72230469 12.35414063 -8.75710938 11.58328125 -8.79296875 10.7890625 C-8.82003906 9.78617188 -8.84710938 8.78328125 -8.875 7.75 C-8.90980469 6.75226563 -8.94460938 5.75453125 -8.98046875 4.7265625 C-8.83544922 3.43878906 -8.83544922 3.43878906 -8.6875 2.125 C-5.26655758 -0.15562828 -4.00562778 -0.09425007 0 0 Z " fill="#F59AA1" transform="translate(385.6875,230.875)"/>
<path d="M0 0 C0.33 0 0.66 0 1 0 C1 4.62 1 9.24 1 14 C2.93173103 12.06826897 2.63390259 8.60844406 3 6 C3.33 5.34 3.66 4.68 4 4 C6.31 4.33 8.62 4.66 11 5 C11 6.32 11 7.64 11 9 C9.35 9.33 7.7 9.66 6 10 C5.34 11.98 4.68 13.96 4 16 C2.68 15.67 1.36 15.34 0 15 C0 10.05 0 5.1 0 0 Z " fill="#FBBAC5" transform="translate(362,310)"/>
<path d="M0 0 C2.31 0.66 4.62 1.32 7 2 C6.34 3.32 5.68 4.64 5 6 C3.68 6 2.36 6 1 6 C2.98 6.66 4.96 7.32 7 8 C7 8.99 7 9.98 7 11 C3.61401171 12.04184255 0.53318313 12.23042499 -3 12 C-3.66 11.34 -4.32 10.68 -5 10 C-3.68 10 -2.36 10 -1 10 C-1 8.02 -1 6.04 -1 4 C-0.34 4 0.32 4 1 4 C0.67 2.68 0.34 1.36 0 0 Z " fill="#F9B6BB" transform="translate(229,314)"/>
<path d="M0 0 C2.64 0.33 5.28 0.66 8 1 C8.33 1.99 8.66 2.98 9 4 C8.34 4 7.68 4 7 4 C7 3.34 7 2.68 7 2 C5.68 2 4.36 2 3 2 C3.33 3.32 3.66 4.64 4 6 C5.32 6.33 6.64 6.66 8 7 C8.33 8.65 8.66 10.3 9 12 C7.35 11.67 5.7 11.34 4 11 C3.01 12.485 3.01 12.485 2 14 C1.34 14 0.68 14 0 14 C0 9.38 0 4.76 0 0 Z " fill="#FEF7F9" transform="translate(399,310)"/>
<path d="M0 0 C3.41321235 3.41321235 3.72605419 5.06340351 4.6875 9.6875 C4.93886719 10.86699219 5.19023437 12.04648438 5.44921875 13.26171875 C5.63097656 14.16535156 5.81273437 15.06898437 6 16 C4.68 14.68 3.36 13.36 2 12 C-0.39936931 14.39936931 -0.2866289 15.214085 -0.5 18.5 C-0.77777778 22.77777778 -0.77777778 22.77777778 -3 25 C-3 20.05 -3 15.1 -3 10 C-2.67 10.66 -2.34 11.32 -2 12 C-1.34 12 -0.68 12 0 12 C0 8.04 0 4.08 0 0 Z " fill="#FCC3CE" transform="translate(362,112)"/>
<path d="M0 0 C-1.46580526 3.17833021 -3.28523374 5.82343563 -5.375 8.625 C-8.83761523 13.4827817 -11.07303495 18.37469829 -13 24 C-14.08203125 22.15625 -14.08203125 22.15625 -15 20 C-13.6875 17.5 -13.6875 17.5 -12 15 C-11.64830932 13.67139075 -11.31229724 12.33841672 -11 11 C-10.34 10.01 -9.68 9.02 -9 8 C-8.34 8 -7.68 8 -7 8 C-6.896875 7.236875 -6.79375 6.47375 -6.6875 5.6875 C-5.61838415 1.50822895 -4.37506113 0 0 0 Z " fill="#F8BFD0" transform="translate(266,97)"/>
<path d="M0 0 C1.9140625 0.16796875 1.9140625 0.16796875 4 1 C5.2734375 2.92578125 5.2734375 2.92578125 6.375 5.3125 C8.64306882 9.74971876 10.63821066 11.66694989 15 14 C13.68 14.33 12.36 14.66 11 15 C11 14.34 11 13.68 11 13 C8.69 12.67 6.38 12.34 4 12 C4 10.68 4 9.36 4 8 C2.54166642 6.37485532 2.54166642 6.37485532 1 5 C1 4.34 1 3.68 1 3 C0.01 3 -0.98 3 -2 3 C-1 1 -1 1 0 0 Z " fill="#F8D5DB" transform="translate(310,89)"/>
<path d="M0 0 C0.02685938 2.14576637 0.04633088 4.29162645 0.0625 6.4375 C0.07410156 7.63246094 0.08570313 8.82742188 0.09765625 10.05859375 C0 13 0 13 -1 14 C-3.33297433 14.04092937 -5.66705225 14.04241723 -8 14 C-7.01 13.34 -6.02 12.68 -5 12 C-4.49140984 9.37472973 -4.49140984 9.37472973 -4.4375 6.4375 C-4.30859375 3.43359375 -4.30859375 3.43359375 -4 1 C-2 0 -2 0 0 0 Z " fill="#FCDAE0" transform="translate(214,309)"/>
<path d="M0 0 C0.66 0 1.32 0 2 0 C1.39386998 3.12413285 0.39972557 5.13369924 -1.50390625 7.671875 C-1.99697266 8.33574219 -2.49003906 8.99960938 -2.99804688 9.68359375 C-3.51431641 10.36550781 -4.03058594 11.04742187 -4.5625 11.75 C-5.08263672 12.44738281 -5.60277344 13.14476562 -6.13867188 13.86328125 C-7.42014181 15.57974556 -8.70932798 17.29044431 -10 19 C-10.66 17.68 -11.32 16.36 -12 15 C-11.01 15 -10.02 15 -9 15 C-8.87625 14.46375 -8.7525 13.9275 -8.625 13.375 C-7.87793984 10.5361714 -6.94696636 7.77776798 -6 5 C-4.35 4.67 -2.7 4.34 -1 4 C-0.67 2.68 -0.34 1.36 0 0 Z " fill="#F9CBD5" transform="translate(210,236)"/>
<path d="M0 0 C4.1589169 1.52620804 6.24149447 4.53548422 8.75 8 C9.36681641 8.81984375 9.36681641 8.81984375 9.99609375 9.65625 C13 13.72799003 13 13.72799003 13 16 C12.01 16 11.02 16 10 16 C9.01 14.02 8.02 12.04 7 10 C6.67 10 6.34 10 6 10 C5.67 10.99 5.34 11.98 5 13 C-0.74031891 4.738041 -0.74031891 4.738041 0 0 Z " fill="#FCB2C0" transform="translate(337,85)"/>
<path d="M0 0 C1.32 0.33 2.64 0.66 4 1 C3.67 3.97 3.34 6.94 3 10 C4.65 10.33 6.3 10.66 8 11 C8 11.66 8 12.32 8 13 C5.66705225 13.04241723 3.33297433 13.04092937 1 13 C0 12 0 12 -0.09765625 9.27734375 C-0.08605469 8.17519531 -0.07445312 7.07304687 -0.0625 5.9375 C-0.05347656 4.83277344 -0.04445313 3.72804688 -0.03515625 2.58984375 C-0.02355469 1.73519531 -0.01195312 0.88054687 0 0 Z " fill="#FCF9F8" transform="translate(327,311)"/>
<path d="M0 0 C1.65 0 3.3 0 5 0 C3.02 0.99 3.02 0.99 1 2 C1.33 5.96 1.66 9.92 2 14 C4.31 14.33 6.62 14.66 9 15 C9 14.34 9 13.68 9 13 C8.34 12.67 7.68 12.34 7 12 C8.32 12 9.64 12 11 12 C11 13.32 11 14.64 11 16 C6.93720525 16.85035239 4.02659396 16.92604802 0 16 C-0.19504458 13.89651926 -0.38078496 11.79217415 -0.5625 9.6875 C-0.66691406 8.51574219 -0.77132813 7.34398437 -0.87890625 6.13671875 C-1 3 -1 3 0 0 Z " fill="#FEA9AF" transform="translate(326,309)"/>
<path d="M0 0 C0 0.33 0 0.66 0 1 C-1.051875 1.268125 -2.10375 1.53625 -3.1875 1.8125 C-6.92539247 2.80271451 -6.92539247 2.80271451 -9.625 4.625 C-12.32767606 6.18970719 -13.93007415 6.2631365 -17 6 C-17 5.01 -17 4.02 -17 3 C-21.62 3 -26.24 3 -31 3 C-31 2.67 -31 2.34 -31 2 C-29.78183594 2.02320313 -28.56367188 2.04640625 -27.30859375 2.0703125 C-25.68490201 2.0890835 -24.06120358 2.10728227 -22.4375 2.125 C-21.63763672 2.14175781 -20.83777344 2.15851563 -20.01367188 2.17578125 C-13.07212678 2.23244692 -6.85301222 -0.33429328 0 0 Z " fill="#F8B9C3" transform="translate(317,245)"/>
<path d="M0 0 C1.32 0.33 2.64 0.66 4 1 C4 2.32 4 3.64 4 5 C2.02 5 0.04 5 -2 5 C-2.33 6.98 -2.66 8.96 -3 11 C-3.99 11 -4.98 11 -6 11 C-6 8.03 -6 5.06 -6 2 C-4.02 2 -2.04 2 0 2 C0 1.34 0 0.68 0 0 Z " fill="#F9DCE6" transform="translate(186,309)"/>
<path d="M0 0 C0.97001953 0.05220703 1.94003906 0.10441406 2.93945312 0.15820312 C5.31420788 0.28688442 7.68843229 0.42179796 10.0625 0.5625 C6.98038543 2.35059701 4.73254025 2.81859123 1.18359375 2.828125 C-0.19795898 2.83199219 -0.19795898 2.83199219 -1.60742188 2.8359375 C-2.56197266 2.82820312 -3.51652344 2.82046875 -4.5 2.8125 C-5.93762695 2.82410156 -5.93762695 2.82410156 -7.40429688 2.8359375 C-8.32404297 2.83335937 -9.24378906 2.83078125 -10.19140625 2.828125 C-11.03002197 2.82586914 -11.8686377 2.82361328 -12.73266602 2.82128906 C-14.9375 2.5625 -14.9375 2.5625 -17.9375 0.5625 C-11.86770983 -0.57400717 -6.14688855 -0.36553609 0 0 Z " fill="#FDB1CE" transform="translate(305.9375,204.4375)"/>
<path d="M0 0 C1.32 0 2.64 0 4 0 C3.625 2.4375 3.625 2.4375 3 5 C0.40500456 6.29749772 -1.12726675 5.94158888 -4.0078125 5.66015625 C-5.48701172 5.5199707 -5.48701172 5.5199707 -6.99609375 5.37695312 C-8.54490234 5.22129883 -8.54490234 5.22129883 -10.125 5.0625 C-11.16527344 4.96259766 -12.20554688 4.86269531 -13.27734375 4.75976562 C-15.85211663 4.51173704 -18.42623668 4.25826144 -21 4 C-21 3.67 -21 3.34 -21 3 C-13.74 2.67 -6.48 2.34 1 2 C0.67 1.34 0.34 0.68 0 0 Z " fill="#F3A1B5" transform="translate(257,264)"/>
<path d="M0 0 C1.64666203 0.1135629 3.29236082 0.24117381 4.9375 0.375 C5.85402344 0.44460937 6.77054687 0.51421875 7.71484375 0.5859375 C8.84599609 0.79089844 8.84599609 0.79089844 10 1 C11.32229189 3.64458379 11.09677194 5.67761301 11.0625 8.625 C11.05347656 9.62789062 11.04445313 10.63078125 11.03515625 11.6640625 C11.02355469 12.43492187 11.01195312 13.20578125 11 14 C9.68 14.33 8.36 14.66 7 15 C7.66 11.04 8.32 7.08 9 3 C6.03 3 3.06 3 0 3 C0 2.01 0 1.02 0 0 Z " fill="#FEC3CB" transform="translate(394,244)"/>
<path d="M0 0 C0 1.65 0 3.3 0 5 C-0.99 5.495 -0.99 5.495 -2 6 C-2.474375 5.195625 -2.94875 4.39125 -3.4375 3.5625 C-4.76900154 1.15246512 -4.76900154 1.15246512 -6 0 C-10.07776563 -0.64502969 -10.07776563 -0.64502969 -14 0 C-16.21383588 2.40886428 -17.62756608 5.04398848 -19 8 C-20.19105377 4.4268387 -20.0704232 2.59356359 -19 -1 C-13.66096497 -4.83743143 -5.50125328 -2.66189675 0 0 Z " fill="#F8C6D2" transform="translate(448,260)"/>
<path d="M0 0 C1.485 0.99 1.485 0.99 3 2 C2.67 2.66 2.34 3.32 2 4 C1.84876169 5.5195764 1.75118307 7.04472502 1.68359375 8.5703125 C1.64169922 9.46621094 1.59980469 10.36210937 1.55664062 11.28515625 C1.49766602 12.69087891 1.49766602 12.69087891 1.4375 14.125 C1.39431641 15.06988281 1.35113281 16.01476562 1.30664062 16.98828125 C1.20040928 19.32537092 1.09836824 21.6625683 1 24 C0.67 24 0.34 24 0 24 C-1.21611807 19.25134847 -1.14816693 14.61505567 -1.125 9.75 C-1.12886719 8.92242187 -1.13273437 8.09484375 -1.13671875 7.2421875 C-1.12669335 1.12669335 -1.12669335 1.12669335 0 0 Z " fill="#FBD0D6" transform="translate(393,257)"/>
<path d="M0 0 C0.94875 0.04125 1.8975 0.0825 2.875 0.125 C2.875 1.445 2.875 2.765 2.875 4.125 C0.895 4.125 -1.085 4.125 -3.125 4.125 C-3.125 6.105 -3.125 8.085 -3.125 10.125 C-4.445 10.455 -5.765 10.785 -7.125 11.125 C-7.455 10.135 -7.785 9.145 -8.125 8.125 C-6.805 8.455 -5.485 8.785 -4.125 9.125 C-4.33125 8.01125 -4.5375 6.8975 -4.75 5.75 C-4.87375 4.55375 -4.9975 3.3575 -5.125 2.125 C-3.125 0.125 -3.125 0.125 0 0 Z " fill="#F7ABBA" transform="translate(187.125,314.875)"/>
<path d="M0 0 C0.33 0 0.66 0 1 0 C1.06058594 0.85464844 1.12117188 1.70929688 1.18359375 2.58984375 C1.26738281 3.69457031 1.35117187 4.79929687 1.4375 5.9375 C1.51871094 7.03964844 1.59992188 8.14179688 1.68359375 9.27734375 C1.70418084 11.91109903 1.70418084 11.91109903 3 13 C5.32817964 13.36760731 7.6618385 13.70241581 10 14 C10.33 13.01 10.66 12.02 11 11 C11.33 12.32 11.66 13.64 12 15 C9.6203388 16.1898306 8.08514265 16.13349966 5.4375 16.125 C4.22900391 16.12886719 4.22900391 16.12886719 2.99609375 16.1328125 C1 16 1 16 0 15 C-0.07313567 12.46950598 -0.09247527 9.96695163 -0.0625 7.4375 C-0.05798828 6.72658203 -0.05347656 6.01566406 -0.04882812 5.28320312 C-0.03700864 3.52209987 -0.01907263 1.76103964 0 0 Z " fill="#E7848E" transform="translate(420,310)"/>
<path d="M0 0 C1.34498268 0.28268441 2.67703821 0.62762789 4 1 C6.24907152 1.06790675 8.50001605 1.08499984 10.75 1.0625 C11.92046875 1.05347656 13.0909375 1.04445313 14.296875 1.03515625 C15.18890625 1.02355469 16.0809375 1.01195312 17 1 C17 1.66 17 2.32 17 3 C14.19502177 4.40248912 11.81498635 4.16979056 8.6875 4.1875 C7.55699219 4.20167969 6.42648437 4.21585937 5.26171875 4.23046875 C2.06795157 4.00480137 -0.1276429 3.36342654 -3 2 C-2.01 1.34 -1.02 0.68 0 0 Z " fill="#FDB0C9" transform="translate(387,297)"/>
<path d="M0 0 C2.52490921 2.85070395 2.97228108 4.51029901 3.1875 8.3125 C3.125625 9.199375 3.06375 10.08625 3 11 C2.01 11.495 2.01 11.495 1 12 C0.34 9.03 -0.32 6.06 -1 3 C-4.73437848 2.12132271 -8.16774573 1.91087781 -12 2 C-11 0 -11 0 -9.375 -0.6875 C-5.97120315 -1.13536801 -3.32875139 -0.84731854 0 0 Z " fill="#FDB7C1" transform="translate(361,227)"/>
<path d="M0 0 C1.32 0.66 2.64 1.32 4 2 C3.01 2.495 3.01 2.495 2 3 C1.67 3.66 1.34 4.32 1 5 C0.01268258 6.34275169 -0.98594743 7.67732273 -2 9 C-2.556875 8.525625 -3.11375 8.05125 -3.6875 7.5625 C-6.18346074 5.87604004 -8.0446237 5.41046893 -11 5 C-7.46588679 2.87953208 -4.05606165 2.46800711 0 2 C0 1.34 0 0.68 0 0 Z " fill="#F9CED3" transform="translate(317,117)"/>
<path d="M0 0 C1.70884005 1.62339805 3.37446717 3.29319053 5 5 C5 5.66 5 6.32 5 7 C4.34 7 3.68 7 3 7 C3 10.96 3 14.92 3 19 C2.67 19 2.34 19 2 19 C1.86722656 18.10796875 1.73445313 17.2159375 1.59765625 16.296875 C1.42105469 15.12640625 1.24445313 13.9559375 1.0625 12.75 C0.88847656 11.58984375 0.71445312 10.4296875 0.53515625 9.234375 C0.07950561 6.13541441 0.07950561 6.13541441 -0.62890625 3.703125 C-1 2 -1 2 0 0 Z " fill="#F9AFB9" transform="translate(356,102)"/>
<path d="M0 0 C2.89932357 2.39509338 3.50168276 4.31245243 4 8 C4.639375 8.12375 5.27875 8.2475 5.9375 8.375 C6.618125 8.58125 7.29875 8.7875 8 9 C8.33 9.66 8.66 10.32 9 11 C7.35 10.67 5.7 10.34 4 10 C3.67 11.65 3.34 13.3 3 15 C2.67 15 2.34 15 2 15 C1.47217261 12.68889138 0.95246631 10.37647528 0.4375 8.0625 C0.28603516 7.40314453 0.13457031 6.74378906 -0.02148438 6.06445312 C-0.39173308 4.3854183 -0.70072071 2.69312549 -1 1 C-0.67 0.67 -0.34 0.34 0 0 Z " fill="#FDD7DC" transform="translate(343,93)"/>
<path d="M0 0 C0.33 0 0.66 0 1 0 C0.98839844 1.21558594 0.97679687 2.43117188 0.96484375 3.68359375 C0.95546722 5.26822764 0.94636687 6.85286318 0.9375 8.4375 C0.92912109 9.23994141 0.92074219 10.04238281 0.91210938 10.86914062 C0.9034857 12.91295221 0.9477185 14.95683902 1 17 C1.33 17.33 1.66 17.66 2 18 C2.04080783 19.99958364 2.04254356 22.00045254 2 24 C0 23 0 23 -0.66796875 21.3203125 C-2.3689704 14.13262132 -2.35156203 7.05468609 0 0 Z " fill="#FB9DAE" transform="translate(221,262)"/>
<path d="M0 0 C0.66 0 1.32 0 2 0 C3 3 3 3 2 6 C2.66 6 3.32 6 4 6 C3.1875 8.9375 3.1875 8.9375 2 12 C1.01 12.33 0.02 12.66 -1 13 C-1.02686553 11.02090602 -1.04633375 9.04171029 -1.0625 7.0625 C-1.07410156 5.96035156 -1.08570313 4.85820313 -1.09765625 3.72265625 C-1 1 -1 1 0 0 Z " fill="#FAC4CE" transform="translate(291,112)"/>
<path d="M0 0 C0 0.33 0 0.66 0 1 C-14.85 0.505 -14.85 0.505 -30 0 C-30 -0.33 -30 -0.66 -30 -1 C-25.75074388 -1.22594826 -21.50067556 -1.42771126 -17.25 -1.625 C-16.0434375 -1.68945312 -14.836875 -1.75390625 -13.59375 -1.8203125 C-12.43359375 -1.871875 -11.2734375 -1.9234375 -10.078125 -1.9765625 C-9.00981445 -2.02893066 -7.94150391 -2.08129883 -6.84082031 -2.13525391 C-3.97056896 -1.99859876 -2.41781335 -1.49455551 0 0 Z " fill="#FFADCB" transform="translate(215,286)"/>
<path d="M0 0 C0.33 0 0.66 0 1 0 C1.33 2.31 1.66 4.62 2 7 C6.62 7 11.24 7 16 7 C16 7.66 16 8.32 16 9 C12.79037044 10.06987652 10.31100738 10.20081156 6.9375 10.25 C5.34228516 10.28867187 5.34228516 10.28867187 3.71484375 10.328125 C2.81894531 10.21984375 1.92304688 10.1115625 1 10 C-1.56687367 6.1496895 -0.83288724 4.41430237 0 0 Z " fill="#FDBEC8" transform="translate(413,290)"/>
<path d="M0 0 C5.28137429 0.51525603 8.57221156 2.25477117 13 5 C12.67 6.65 12.34 8.3 12 10 C11.608125 9.5875 11.21625 9.175 10.8125 8.75 C7.08248288 5.14860416 4.28422816 2.60391179 -1 2 C-0.67 1.34 -0.34 0.68 0 0 Z " fill="#F9AAB4" transform="translate(260,281)"/>
<path d="M0 0 C0.66 0 1.32 0 2 0 C1 3 1 3 -1.28515625 4.38671875 C-2.20167969 4.81597656 -3.11820312 5.24523437 -4.0625 5.6875 C-4.98160156 6.12449219 -5.90070313 6.56148437 -6.84765625 7.01171875 C-7.55792969 7.33785156 -8.26820313 7.66398438 -9 8 C-9 7.01 -9 6.02 -9 5 C-9.66 4.67 -10.32 4.34 -11 4 C-10.28972656 3.79503906 -9.57945312 3.59007812 -8.84765625 3.37890625 C-7.92855469 3.10949219 -7.00945312 2.84007812 -6.0625 2.5625 C-4.68771484 2.16224609 -4.68771484 2.16224609 -3.28515625 1.75390625 C-1.0597507 1.20973949 -1.0597507 1.20973949 0 0 Z " fill="#FBA9B9" transform="translate(345,190)"/>
<path d="M0 0 C0.66 0 1.32 0 2 0 C2.33 1.98 2.66 3.96 3 6 C3.86625 5.814375 4.7325 5.62875 5.625 5.4375 C9.05152628 4.99332067 11.64212371 5.28045508 15 6 C15 6.33 15 6.66 15 7 C14.38511719 7.12117187 13.77023437 7.24234375 13.13671875 7.3671875 C12.32847656 7.53476563 11.52023437 7.70234375 10.6875 7.875 C9.48673828 8.11863281 9.48673828 8.11863281 8.26171875 8.3671875 C5.74698882 8.94478999 5.74698882 8.94478999 3 11 C0.60236815 8.60236815 0.65719414 7.66726502 0.375 4.375 C0.30023438 3.55773437 0.22546875 2.74046875 0.1484375 1.8984375 C0.09945313 1.27195312 0.05046875 0.64546875 0 0 Z " fill="#FB96A1" transform="translate(316,126)"/>
<path d="M0 0 C-0.33 0.99 -0.66 1.98 -1 3 C-2.11375 3.12375 -3.2275 3.2475 -4.375 3.375 C-8.03103677 3.6465813 -8.03103677 3.6465813 -10 6 C-11.32 6 -12.64 6 -14 6 C-14 5.34 -14 4.68 -14 4 C-9.56822328 0.74134065 -5.41807248 0 0 0 Z " fill="#FBCAD8" transform="translate(298,94)"/>
<path d="M0 0 C0.185625 0.639375 0.37125 1.27875 0.5625 1.9375 C1.93435308 4.41670358 1.93435308 4.41670358 5.5625 4.6875 C6.696875 4.790625 7.83125 4.89375 9 5 C10 6 10 6 10.0625 8.5625 C10.041875 9.366875 10.02125 10.17125 10 11 C9.67 10.01 9.34 9.02 9 8 C7.906875 8.061875 6.81375 8.12375 5.6875 8.1875 C2 8 2 8 0 6.8125 C-1 5 -1 5 -0.6875 2.3125 C-0.460625 1.549375 -0.23375 0.78625 0 0 Z " fill="#F7C3C5" transform="translate(394,281)"/>
<path d="M0 0 C0.99 0 1.98 0 3 0 C1.97239389 2.56901527 0.94344344 5.13510733 -0.125 7.6875 C-1.11796403 9.89967791 -1.11796403 9.89967791 -1 12 C-1.99 12 -2.98 12 -4 12 C-4.6875 10.3125 -4.6875 10.3125 -5 8 C-3.6875 5.25 -3.6875 5.25 -2 3 C-1.34 3 -0.68 3 0 3 C0 2.01 0 1.02 0 0 Z " fill="#F7C5D4" transform="translate(349,148)"/>
<path d="M0 0 C0.33 0.66 0.66 1.32 1 2 C1.598125 2.12375 2.19625 2.2475 2.8125 2.375 C5.70194332 3.20055523 7.01607936 4.80351643 9 7 C8.34 7.66 7.68 8.32 7 9 C6.67 8.34 6.34 7.68 6 7 C4.344389 6.06606559 2.65049478 5.19897217 0.9375 4.375 C0.01839844 3.92898437 -0.90070313 3.48296875 -1.84765625 3.0234375 C-2.55792969 2.68570313 -3.26820313 2.34796875 -4 2 C-2.68 1.34 -1.36 0.68 0 0 Z " fill="#F8C0CD" transform="translate(291,166)"/>
<path d="M0 0 C5.445 1.485 5.445 1.485 11 3 C11.33 4.32 11.66 5.64 12 7 C10.68 7 9.36 7 8 7 C7.67 6.34 7.34 5.68 7 5 C4.69034152 3.94647157 2.3570226 2.94280904 0 2 C0 1.34 0 0.68 0 0 Z " fill="#F8C3CC" transform="translate(321,124)"/>
<path d="M0 0 C1.98 0 3.96 0 6 0 C5.67 1.65 5.34 3.3 5 5 C3.02 5.33 1.04 5.66 -1 6 C-0.67 4.02 -0.34 2.04 0 0 Z " fill="#F7BFCA" transform="translate(331,315)"/>
<path d="M0 0 C0.33 0 0.66 0 1 0 C1 4.62 1 9.24 1 14 C3.51083114 12.74458443 3.87125446 11.49936512 5 9 C5 9.66 5 10.32 5 11 C5.66 11.33 6.32 11.66 7 12 C6.01 13.32 5.02 14.64 4 16 C2.68 15.67 1.36 15.34 0 15 C0 10.05 0 5.1 0 0 Z " fill="#FD95A0" transform="translate(398,310)"/>
<path d="M0 0 C1.32 0 2.64 0 4 0 C4 1.32 4 2.64 4 4 C3.34 4 2.68 4 2 4 C2 5.98 2 7.96 2 10 C1.34 10 0.68 10 0 10 C-0.19412181 8.52168779 -0.38012131 7.04230684 -0.5625 5.5625 C-0.66691406 4.73878906 -0.77132813 3.91507812 -0.87890625 3.06640625 C-0.91886719 2.38449219 -0.95882813 1.70257813 -1 1 C-0.67 0.67 -0.34 0.34 0 0 Z " fill="#FEDBE2" transform="translate(384,309)"/>
<path d="M0 0 C3.7952131 1.49097658 5.61042731 3.75700849 8 7 C6.68 6.67 5.36 6.34 4 6 C3.67 6.66 3.34 7.32 3 8 C1.5 6.8125 1.5 6.8125 0 5 C-0.1875 2.3125 -0.1875 2.3125 0 0 Z " fill="#F6AFBE" transform="translate(290,79)"/>
<path d="M0 0 C0.33 0 0.66 0 1 0 C1 3.63 1 7.26 1 11 C0.01 11 -0.98 11 -2 11 C-2.05399736 9.54207116 -2.09279177 8.08357288 -2.125 6.625 C-2.15980469 5.40683594 -2.15980469 5.40683594 -2.1953125 4.1640625 C-2 2 -2 2 0 0 Z " fill="#FBF5F8" transform="translate(203,309)"/>
<path d="M0 0 C6.258654 -0.5326514 10.45108785 1.18150494 16 4 C16 4.99 16 5.98 16 7 C15.67 6.34 15.34 5.68 15 5 C13.00276453 4.65048379 11.00189873 4.32173372 9 4 C5.97069768 3.08232861 2.98417924 2.05441 0 1 C0 0.67 0 0.34 0 0 Z " fill="#FBC7D0" transform="translate(440,245)"/>
<path d="M0 0 C0.66 0 1.32 0 2 0 C1.9071875 1.9490625 1.9071875 1.9490625 1.8125 3.9375 C1.78812858 9.05549789 3.12566102 13.28068221 5 18 C2 17 2 17 0.25 14.0625 C-1.63760954 9.36792706 -0.81396602 4.87398928 0 0 Z " fill="#F8AAB5" transform="translate(284,121)"/>
<path d="M0 0 C2.31 0.66 4.62 1.32 7 2 C6.34 3.32 5.68 4.64 5 6 C3.02 6 1.04 6 -1 6 C-1 5.34 -1 4.68 -1 4 C-0.34 4 0.32 4 1 4 C0.67 2.68 0.34 1.36 0 0 Z " fill="#FBB0C5" transform="translate(229,314)"/>
<path d="M0 0 C4.95 0 9.9 0 15 0 C15.33 2.97 15.66 5.94 16 9 C15.01 8.67 14.02 8.34 13 8 C13 6.02 13 4.04 13 2 C8.71 1.67 4.42 1.34 0 1 C0 0.67 0 0.34 0 0 Z " fill="#FFBDE2" transform="translate(348,247)"/>
<path d="M0 0 C-0.66 0 -1.32 0 -2 0 C-2 0.66 -2 1.32 -2 2 C-7.16569441 3.79217969 -10.51053913 4.12029814 -16 3 C-16 2.67 -16 2.34 -16 2 C-13.89829344 1.46932659 -11.79352402 0.95077143 -9.6875 0.4375 C-7.92986328 0.00244141 -7.92986328 0.00244141 -6.13671875 -0.44140625 C-3 -1 -3 -1 0 0 Z " fill="#F7ABB6" transform="translate(330,144)"/>
<path d="M0 0 C1.32 0.66 2.64 1.32 4 2 C3.44271087 5.34373475 2.64826111 8.03312999 1 11 C1 9.02 1 7.04 1 5 C0.34 5 -0.32 5 -1 5 C-0.67 3.35 -0.34 1.7 0 0 Z " fill="#FDECF2" transform="translate(317,121)"/>
<path d="M0 0 C0.33 0 0.66 0 1 0 C1.12375 0.804375 1.2475 1.60875 1.375 2.4375 C1.58125 3.283125 1.7875 4.12875 2 5 C2.66 5.33 3.32 5.66 4 6 C4.33 5.34 4.66 4.68 5 4 C5.33 4.99 5.66 5.98 6 7 C5.01 8.485 5.01 8.485 4 10 C2.68 9.67 1.36 9.34 0 9 C0 6.03 0 3.06 0 0 Z " fill="#F49CAD" transform="translate(302,316)"/>
<path d="M0 0 C1.98 0.99 1.98 0.99 4 2 C3.67 5.63 3.34 9.26 3 13 C2.34 13 1.68 13 1 13 C0.67 8.71 0.34 4.42 0 0 Z " fill="#FECDCF" transform="translate(391,231)"/>
<path d="M0 0 C0.33 0.99 0.66 1.98 1 3 C-0.60320974 3.19551338 -2.20762986 3.38111983 -3.8125 3.5625 C-4.70582031 3.66691406 -5.59914063 3.77132813 -6.51953125 3.87890625 C-9 4 -9 4 -12 3 C-8.06781617 1.31477836 -4.31682198 0 0 0 Z " fill="#FED6DC" transform="translate(459,296)"/>
<path d="M0 0 C0.66 0.33 1.32 0.66 2 1 C0.25306837 4.07792716 -1.44452707 6.56068493 -4 9 C-4.33 9.66 -4.66 10.32 -5 11 C-5.66 11 -6.32 11 -7 11 C-6.1875 8.0625 -6.1875 8.0625 -5 5 C-4.01 4.67 -3.02 4.34 -2 4 C-0.79117904 1.99983534 -0.79117904 1.99983534 0 0 Z " fill="#F5ADB7" transform="translate(229,251)"/>
<path d="M0 0 C0.40089844 0.50015625 0.80179687 1.0003125 1.21484375 1.515625 C-0.74205284 1.73704755 -2.70077577 1.9423818 -4.66015625 2.140625 C-6.29597656 2.31464844 -6.29597656 2.31464844 -7.96484375 2.4921875 C-9.36089844 2.50378906 -9.36089844 2.50378906 -10.78515625 2.515625 C-11.44515625 1.855625 -12.10515625 1.195625 -12.78515625 0.515625 C-10.56893419 -0.59248603 -8.79814715 -0.89637625 -6.34765625 -1.234375 C-5.56519531 -1.35296875 -4.78273438 -1.4715625 -3.9765625 -1.59375 C-1.78515625 -1.484375 -1.78515625 -1.484375 0 0 Z " fill="#FAB5BF" transform="translate(311.78515625,197.484375)"/>
<path d="M0 0 C0.99 0.33 1.98 0.66 3 1 C2.67 2.98 2.34 4.96 2 7 C0.68 7 -0.64 7 -2 7 C-2.125 4.625 -2.125 4.625 -2 2 C-1.34 1.34 -0.68 0.68 0 0 Z " fill="#FEF5FA" transform="translate(226,317)"/>
<path d="M0 0 C0.66 0 1.32 0 2 0 C1.67 1.65 1.34 3.3 1 5 C1.99 5 2.98 5 4 5 C4 5.66 4 6.32 4 7 C1.69 7 -0.62 7 -3 7 C-2.67 5.35 -2.34 3.7 -2 2 C-1.34 2 -0.68 2 0 2 C0 1.34 0 0.68 0 0 Z " fill="#FBBCCE" transform="translate(179,279)"/>
<path d="M0 0 C4.35535069 1.16142685 6.64619703 2.07699505 9 6 C8.236875 5.62875 7.47375 5.2575 6.6875 4.875 C5.3571875 4.441875 5.3571875 4.441875 4 4 C3.01 4.66 2.02 5.32 1 6 C0.67 4.02 0.34 2.04 0 0 Z " fill="#F7D4DB" transform="translate(294,85)"/>
<path d="M0 0 C-0.33 1.32 -0.66 2.64 -1 4 C-2.65 4 -4.3 4 -6 4 C-5.01 3.67 -4.02 3.34 -3 3 C-3 2.01 -3 1.02 -3 0 C-5.64 0 -8.28 0 -11 0 C-11 -0.33 -11 -0.66 -11 -1 C-3.57142857 -2.42857143 -3.57142857 -2.42857143 0 0 Z " fill="#F6BFD0" transform="translate(432,310)"/>
<path d="M0 0 C0.12375 0.78375 0.2475 1.5675 0.375 2.375 C0.79117993 5.14057822 0.79117993 5.14057822 3 7 C1.68 6.67 0.36 6.34 -1 6 C-1 5.01 -1 4.02 -1 3 C-1.66 3 -2.32 3 -3 3 C-3 3.66 -3 4.32 -3 5 C-3.66 5 -4.32 5 -5 5 C-5 3.68 -5 2.36 -5 1 C-3 0 -3 0 0 0 Z " fill="#F9B5C1" transform="translate(307,309)"/>
<path d="M0 0 C0.33 0.66 0.66 1.32 1 2 C-1.31 3.32 -3.62 4.64 -6 6 C-6 4.68 -6 3.36 -6 2 C-4.02 1.34 -2.04 0.68 0 0 Z M-12 6 C-10.02 6 -8.04 6 -6 6 C-9.75 8 -9.75 8 -12 8 C-12 7.34 -12 6.68 -12 6 Z " fill="#FBDAEB" transform="translate(438,245)"/>
<path d="M0 0 C0 0.33 0 0.66 0 1 C-1.051875 1.268125 -2.10375 1.53625 -3.1875 1.8125 C-6.9461743 2.81183586 -6.9461743 2.81183586 -9.75 4.6875 C-10.4925 5.120625 -11.235 5.55375 -12 6 C-12.99 5.67 -13.98 5.34 -15 5 C-9.6694441 1.32783927 -6.48396644 -0.14408814 0 0 Z " fill="#FED0DD" transform="translate(317,245)"/>
<path d="M0 0 C-3.3 2.31 -6.6 4.62 -10 7 C-10.33 6.34 -10.66 5.68 -11 5 C-10.34 5 -9.68 5 -9 5 C-8.7525 4.38125 -8.505 3.7625 -8.25 3.125 C-6.05756043 -0.60214727 -4.06146667 -1.35382222 0 0 Z " fill="#FBC4C4" transform="translate(347,184)"/>
<path d="M0 0 C0.33 0 0.66 0 1 0 C1 3.96 1 7.92 1 12 C-0.32 12.33 -1.64 12.66 -3 13 C-2.01 8.71 -1.02 4.42 0 0 Z " fill="#F8C1CA" transform="translate(347,119)"/>
<path d="M0 0 C5.75 -0.125 5.75 -0.125 8 1 C8 1.66 8 2.32 8 3 C2.25 4.125 2.25 4.125 0 3 C0 2.01 0 1.02 0 0 Z " fill="#FDFAF9" transform="translate(283,310)"/>
<path d="M0 0 C2.02045442 0.60183749 4.02111039 1.27306096 6 2 C6.33 2.66 6.66 3.32 7 4 C7.99 4.33 8.98 4.66 10 5 C10.33 5.99 10.66 6.98 11 8 C6.40378078 6.5129879 3.53027653 4.20187872 0 1 C0 0.67 0 0.34 0 0 Z " fill="#F89EAC" transform="translate(225,290)"/>
<path d="M0 0 C0.8531488 2.38881665 1.12563748 3.62308755 0.3125 6.0625 C-1.18464888 8.27257692 -2.79042813 9.52695209 -5 11 C-5.66 10.67 -6.32 10.34 -7 10 C-3.25 4.125 -3.25 4.125 -1 3 C-0.67 2.01 -0.34 1.02 0 0 Z " fill="#F7ACB5" transform="translate(184,247)"/>
<path d="M0 0 C0.928125 0.2784375 0.928125 0.2784375 1.875 0.5625 C4.04160178 1.23686176 4.04160178 1.23686176 6 0 C6 1.65 6 3.3 6 5 C4.68 5 3.36 5 2 5 C1.34 3.35 0.68 1.7 0 0 Z " fill="#FCBCC7" transform="translate(404,320)"/>
<path d="M0 0 C2.31 0.66 4.62 1.32 7 2 C6.67 2.99 6.34 3.98 6 5 C3.69 5 1.38 5 -1 5 C-0.01 4.34 0.98 3.68 2 3 C1.34 2.67 0.68 2.34 0 2 C0 1.34 0 0.68 0 0 Z " fill="#F8BECA" transform="translate(250,320)"/>
<path d="M0 0 C3.63 0 7.26 0 11 0 C11.33 0.99 11.66 1.98 12 3 C11.67 3.66 11.34 4.32 11 5 C10.34 5 9.68 5 9 5 C9 4.01 9 3.02 9 2 C6.03 1.67 3.06 1.34 0 1 C0 0.67 0 0.34 0 0 Z " fill="#FCABB7" transform="translate(282,309)"/>
<path d="M0 0 C0.66 0 1.32 0 2 0 C2 1.98 2 3.96 2 6 C2.66 6 3.32 6 4 6 C4.33 7.32 4.66 8.64 5 10 C1.125 8.25 1.125 8.25 0 6 C-0.039992 4.00039988 -0.04346799 1.99952758 0 0 Z " fill="#F8CAD3" transform="translate(379,288)"/>
<path d="M0 0 C0.66 0 1.32 0 2 0 C1.25 5.75 1.25 5.75 -1 8 C-1.99 7.67 -2.98 7.34 -4 7 C-2.68 4.69 -1.36 2.38 0 0 Z " fill="#FABBC3" transform="translate(169,267)"/>
<path d="M0 0 C1.32 0 2.64 0 4 0 C3.67 1.32 3.34 2.64 3 4 C1.35 4.33 -0.3 4.66 -2 5 C-1.125 1.125 -1.125 1.125 0 0 Z " fill="#FDE3EA" transform="translate(332,195)"/>
<path d="M0 0 C0 2.31 0 4.62 0 7 C-1.32 7 -2.64 7 -4 7 C-4.1875 4.625 -4.1875 4.625 -4 2 C-1 0 -1 0 0 0 Z " fill="#F9D6E0" transform="translate(314,309)"/>
<path d="M0 0 C0 0.99 0 1.98 0 3 C-0.66 3 -1.32 3 -2 3 C-2.33 4.32 -2.66 5.64 -3 7 C-3.66 7 -4.32 7 -5 7 C-5 7.99 -5 8.98 -5 10 C-5.99 10 -6.98 10 -8 10 C-6.44303593 6.17836093 -3.96591316 3.81381505 -1 1 C-0.67 0.67 -0.34 0.34 0 0 Z " fill="#FAAFB6" transform="translate(259,97)"/>
<path d="M0 0 C0.88300781 0.28746094 1.76601562 0.57492187 2.67578125 0.87109375 C3.67158203 1.21333984 3.67158203 1.21333984 4.6875 1.5625 C4.6875 1.8925 4.6875 2.2225 4.6875 2.5625 C-5.87058656 1.59894647 -5.87058656 1.59894647 -10.3125 0.5625 C-10.3125 0.2325 -10.3125 -0.0975 -10.3125 -0.4375 C-6.34090314 -1.51806059 -3.88696843 -1.29565614 0 0 Z " fill="#FEA0AD" transform="translate(246.3125,298.4375)"/>
<path d="M0 0 C0.75 1.625 0.75 1.625 1 4 C-0.9375 7.25 -0.9375 7.25 -3 10 C-3.75 8.375 -3.75 8.375 -4 6 C-2.0625 2.75 -2.0625 2.75 0 0 Z " fill="#FAC0C4" transform="translate(186,269)"/>
<path d="M0 0 C3.37462715 0.54723683 5.08235 1.0549 8 3 C7.67 4.65 7.34 6.3 7 8 C6.401875 7.236875 5.80375 6.47375 5.1875 5.6875 C3.53040668 3.6516425 1.89702326 1.8021721 0 0 Z " fill="#FBDEE0" transform="translate(440,258)"/>
<path d="M0 0 C5.28798182 0.41474367 8.11690718 1.35224614 12 5 C6.71201818 4.58525633 3.88309282 3.64775386 0 0 Z " fill="#FAC2D7" transform="translate(255,247)"/>
<path d="M0 0 C5.28 0.33 10.56 0.66 16 1 C16 1.33 16 1.66 16 2 C13.89651926 2.19504458 11.79217415 2.38078496 9.6875 2.5625 C8.51574219 2.66691406 7.34398437 2.77132812 6.13671875 2.87890625 C3 3 3 3 0 2 C0 1.34 0 0.68 0 0 Z " fill="#F9A0BC" transform="translate(281,173)"/>
<path d="M0 0 C0.66 0.99 1.32 1.98 2 3 C2.99 3.66 3.98 4.32 5 5 C3.02 5.66 1.04 6.32 -1 7 C-1.625 5.1875 -1.625 5.1875 -2 3 C-1.34 2.01 -0.68 1.02 0 0 Z " fill="#FBB3B7" transform="translate(297,117)"/>
<path d="M0 0 C0.99 0 1.98 0 3 0 C4.6875 2 4.6875 2 6 4 C5.67 4.66 5.34 5.32 5 6 C4.01 6 3.02 6 2 6 C1.34 5.34 0.68 4.68 0 4 C0 2.68 0 1.36 0 0 Z " fill="#F4A5C1" transform="translate(302,84)"/>
<path d="M0 0 C2.475 0.495 2.475 0.495 5 1 C5.66 3.31 6.32 5.62 7 8 C5.68 7.34 4.36 6.68 3 6 C3 4.68 3 3.36 3 2 C2.01 2 1.02 2 0 2 C0 1.34 0 0.68 0 0 Z " fill="#F8A7B0" transform="translate(307,318)"/>
<path d="M0 0 C2.0625 0.4375 2.0625 0.4375 4 1 C4.33 2.32 4.66 3.64 5 5 C3.68 5 2.36 5 1 5 C1 4.34 1 3.68 1 3 C0.01 3 -0.98 3 -2 3 C-1 1 -1 1 0 0 Z " fill="#F59FB8" transform="translate(310,89)"/>
<path d="M0 0 C0.66 0 1.32 0 2 0 C1.45773019 3.79588866 -0.20127563 5.47211993 -3 8 C-3.33 7.01 -3.66 6.02 -4 5 C-3.01 4.67 -2.02 4.34 -1 4 C-0.26676204 1.98491642 -0.26676204 1.98491642 0 0 Z " fill="#FAB9BD" transform="translate(210,236)"/>
<path d="M0 0 C0.66 0 1.32 0 2 0 C3.35439668 2.70879335 3.06501451 5.00933268 3 8 C2.01 8.495 2.01 8.495 1 9 C0.45627049 5.94152152 0 3.11227195 0 0 Z " fill="#FAAFBB" transform="translate(361,230)"/>
<path d="M0 0 C2.60608273 2.5162178 4.89381685 5.05134359 7 8 C5.35 7.67 3.7 7.34 2 7 C1.34 4.69 0.68 2.38 0 0 Z " fill="#F8A0A7" transform="translate(260,157)"/>
<path d="M0 0 C0.66 0 1.32 0 2 0 C1.5205537 4.21912747 0.83374881 6.79663178 -2 10 C-2.625 8.125 -2.625 8.125 -3 6 C-2.34 5.34 -1.68 4.68 -1 4 C-0.3574765 1.93125966 -0.3574765 1.93125966 0 0 Z " fill="#FBB5C7" transform="translate(354,138)"/>
<path d="M0 0 C1.65 0 3.3 0 5 0 C5 1.65 5 3.3 5 5 C2.525 4.01 2.525 4.01 0 3 C0 2.01 0 1.02 0 0 Z " fill="#F4CBD5" transform="translate(425,319)"/>
<path d="M0 0 C3.375 0.25 3.375 0.25 7 1 C8.4375 3.0625 8.4375 3.0625 9 5 C5.9168649 3.80100302 2.93720508 2.52299523 0 1 C0 0.67 0 0.34 0 0 Z " fill="#FCBCC1" transform="translate(271,198)"/>
<path d="M0 0 C1.98 0.495 1.98 0.495 4 1 C4 2.98 4 4.96 4 7 C2.35 5.68 0.7 4.36 -1 3 C-0.67 2.01 -0.34 1.02 0 0 Z " fill="#EC7C8E" transform="translate(330,123)"/>
<path d="M0 0 C1.42944945 2.35438733 2.08661261 3.48032433 1.625 6.25 C1.41875 6.8275 1.2125 7.405 1 8 C0.01 7.67 -0.98 7.34 -2 7 C-1.34 4.69 -0.68 2.38 0 0 Z " fill="#FED4D7" transform="translate(403,251)"/>
<path d="M0 0 C0 0.99 0 1.98 0 3 C-1.32 3.33 -2.64 3.66 -4 4 C-4 3.34 -4 2.68 -4 2 C-4.99 1.67 -5.98 1.34 -7 1 C-4.53721199 -0.231394 -2.7204945 -0.07159196 0 0 Z " fill="#FFB3BB" transform="translate(278,88)"/>
<path d="" fill="#FF0000" transform="translate(0,0)"/>
<path d="" fill="#FF0000" transform="translate(0,0)"/>
<path d="" fill="#FF0000" transform="translate(0,0)"/>
<path d="" fill="#FF0000" transform="translate(0,0)"/>
<path d="" fill="#FF0000" transform="translate(0,0)"/>
<path d="" fill="#FF0000" transform="translate(0,0)"/>
<path d="" fill="#FF0000" transform="translate(0,0)"/>
<path d="" fill="#FF0000" transform="translate(0,0)"/>
<path d="" fill="#FF0000" transform="translate(0,0)"/>
<path d="" fill="#FF0000" transform="translate(0,0)"/>
<path d="" fill="#FF0000" transform="translate(0,0)"/>
<path d="" fill="#FF0000" transform="translate(0,0)"/>
<path d="" fill="#FF0000" transform="translate(0,0)"/>
<path d="" fill="#FF0000" transform="translate(0,0)"/>
<path d="" fill="#FF0000" transform="translate(0,0)"/>
<path d="" fill="#FF0000" transform="translate(0,0)"/>
<path d="" fill="#FF0000" transform="translate(0,0)"/>
<path d="" fill="#FF0000" transform="translate(0,0)"/>
<path d="" fill="#FF0000" transform="translate(0,0)"/>
<path d="" fill="#FF0000" transform="translate(0,0)"/>
<path d="" fill="#FF0000" transform="translate(0,0)"/>
<path d="" fill="#FF0000" transform="translate(0,0)"/>
<path d="" fill="#FF0000" transform="translate(0,0)"/>
<path d="" fill="#FF0000" transform="translate(0,0)"/>
<path d="" fill="#FF0000" transform="translate(0,0)"/>
<path d="" fill="#FF0000" transform="translate(0,0)"/>
<path d="" fill="#FF0000" transform="translate(0,0)"/>
<path d="" fill="#FF0000" transform="translate(0,0)"/>
<path d="" fill="#FF0000" transform="translate(0,0)"/>
<path d="" fill="#FF0000" transform="translate(0,0)"/>
<path d="" fill="#FF0000" transform="translate(0,0)"/>
<path d="" fill="#FF0000" transform="translate(0,0)"/>
<path d="" fill="#FF0000" transform="translate(0,0)"/>
<path d="" fill="#FF0000" transform="translate(0,0)"/>
<path d="" fill="#FF0000" transform="translate(0,0)"/>
<path d="" fill="#FF0000" transform="translate(0,0)"/>
<path d="" fill="#FF0000" transform="translate(0,0)"/>
<path d="" fill="#FF0000" transform="translate(0,0)"/>
<path d="" fill="#FF0000" transform="translate(0,0)"/>
<path d="" fill="#FF0000" transform="translate(0,0)"/>
<path d="" fill="#FF0000" transform="translate(0,0)"/>
<path d="" fill="#FF0000" transform="translate(0,0)"/>
<path d="" fill="#FF0000" transform="translate(0,0)"/>
<path d="" fill="#FF0000" transform="translate(0,0)"/>
<path d="" fill="#FF0000" transform="translate(0,0)"/>
<path d="" fill="#FF0000" transform="translate(0,0)"/>
<path d="" fill="#FF0000" transform="translate(0,0)"/>
<path d="" fill="#FF0000" transform="translate(0,0)"/>
<path d="" fill="#FF0000" transform="translate(0,0)"/>
<path d="" fill="#FF0000" transform="translate(0,0)"/>
<path d="" fill="#FF0000" transform="translate(0,0)"/>
<path d="" fill="#FF0000" transform="translate(0,0)"/>
<path d="" fill="#FF0000" transform="translate(0,0)"/>
<path d="" fill="#FF0000" transform="translate(0,0)"/>
<path d="" fill="#FF0000" transform="translate(0,0)"/>
<path d="" fill="#FF0000" transform="translate(0,0)"/>
<path d="" fill="#FF0000" transform="translate(0,0)"/>
<path d="" fill="#FF0000" transform="translate(0,0)"/>
<path d="" fill="#FF0000" transform="translate(0,0)"/>
<path d="" fill="#FF0000" transform="translate(0,0)"/>
<path d="" fill="#FF0000" transform="translate(0,0)"/>
<path d="" fill="#FF0000" transform="translate(0,0)"/>
<path d="" fill="#FF0000" transform="translate(0,0)"/>
<path d="" fill="#FF0000" transform="translate(0,0)"/>
<path d="" fill="#FF0000" transform="translate(0,0)"/>
</svg>
